<svg aria-hidden="true" style="position: absolute; width: 0; height: 0; overflow: hidden;" version="1.1" xmlns="http://www.w3.org/2000/svg" xmlns:xlink="http://www.w3.org/1999/xlink">
<defs>
<symbol id="icon-line" viewBox="0 0 2 32">
<path stroke-linejoin="miter" stroke-linecap="butt" stroke-miterlimit="4" stroke-width="2.1333" d="M1.067 0v32"></path>
</symbol>
<symbol id="icon-Play" viewBox="0 0 30 32">
<path fill="#fff" style="fill: var(--color1, #fff)" d="M19.898 15.172l-8.725-5.332c-0.147-0.090-0.315-0.139-0.487-0.142s-0.342 0.039-0.492 0.124c-0.15 0.084-0.275 0.207-0.362 0.356s-0.133 0.318-0.133 0.49v10.666c0 0.172 0.046 0.341 0.133 0.49s0.212 0.271 0.362 0.355c0.15 0.084 0.32 0.127 0.492 0.124s0.34-0.052 0.487-0.142l8.725-5.332c0.142-0.087 0.259-0.208 0.34-0.353s0.124-0.308 0.124-0.474c0-0.166-0.043-0.329-0.124-0.474s-0.198-0.267-0.34-0.353z"></path>
</symbol>
<symbol id="icon-background_voice" viewBox="0 0 134 32">
<path d="M133.699 16h-0.494v-0.277h0.494v0.277zM133.699 15.253h-0.494v-0.498h0.494v0.498z"></path>
<path d="M132.136 15.557h-0.494v-0.498h0.494v0.498zM132.136 14.561h-0.494v-0.498h0.494v0.498zM132.136 13.592h-0.494v-0.498h0.494v0.498z"></path>
<path d="M130.573 16h-0.494v-0.249h0.494v0.249zM130.573 15.253h-0.494v-0.498h0.494v0.498zM130.573 14.284h-0.494v-0.498h0.494v0.498zM130.573 13.315h-0.494v-0.498h0.494v0.498zM130.573 12.346h-0.494v-0.498h0.494v0.498z"></path>
<path d="M129.010 15.834h-0.493v-0.498h0.493v0.498zM129.010 14.865h-0.493v-0.498h0.493v0.498z"></path>
<path d="M127.447 16h-0.494v-0.194h0.494v0.194zM127.447 15.336h-0.494v-0.498h0.494v0.498zM127.447 14.367h-0.494v-0.498h0.494v0.498zM127.447 13.37h-0.494v-0.498h0.494v0.498z"></path>
<path d="M125.884 15.751h-0.494v-0.498h0.494v0.498zM125.884 14.754h-0.494v-0.498h0.494v0.498zM125.884 13.785h-0.494v-0.498h0.494v0.498zM125.884 12.817h-0.494v-0.498h0.494v0.498zM125.884 11.848h-0.494v-0.498h0.494v0.498zM125.884 10.851h-0.494v-0.498h0.494v0.498z"></path>
<path d="M124.294 16h-0.494v-0.138h0.494v0.138zM124.294 15.391h-0.494v-0.498h0.494v0.498zM124.294 14.422h-0.494v-0.498h0.494v0.498z"></path>
<path d="M122.731 16h-0.494v-0.471h0.494v0.471zM122.731 15.059h-0.494v-0.498h0.494v0.498zM122.731 14.062h-0.494v-0.498h0.494v0.498zM122.731 13.093h-0.494v-0.498h0.494v0.498zM122.731 12.125h-0.494v-0.498h0.494v0.498z"></path>
<path d="M121.168 15.557h-0.494v-0.498h0.494v0.498zM121.168 14.588h-0.494v-0.498h0.494v0.498zM121.168 13.619h-0.494v-0.498h0.494v0.498zM121.168 12.651h-0.494v-0.498h0.494v0.498zM121.168 11.654h-0.494v-0.498h0.494v0.498zM121.168 10.685h-0.494v-0.498h0.494v0.498zM121.168 9.716h-0.494v-0.498h0.494v0.498z"></path>
<path d="M119.577 15.945h-0.494v-0.498h0.494v0.498zM119.577 14.976h-0.494v-0.498h0.494v0.498zM119.577 13.979h-0.494v-0.498h0.494v0.498zM119.577 13.010h-0.494v-0.498h0.494v0.498zM119.577 12.042h-0.494v-0.498h0.494v0.498zM119.577 11.073h-0.494v-0.498h0.494v0.498zM119.577 10.076h-0.494v-0.498h0.494v0.498z"></path>
<path d="M118.014 16h-0.494v-0.498h0.494v0.498zM118.014 15.003h-0.494v-0.498h0.494v0.498zM118.014 14.035h-0.494v-0.498h0.494v0.498zM118.014 13.066h-0.494v-0.498h0.494v0.498zM118.014 12.097h-0.494v-0.498h0.494v0.498zM118.014 11.1h-0.494v-0.498h0.494v0.498zM118.014 10.132h-0.494v-0.498h0.494v0.498zM118.014 9.163h-0.494v-0.498h0.494v0.498zM118.014 8.166h-0.494v-0.498h0.494v0.498zM118.014 7.197h-0.494v-0.498h0.494v0.498zM118.014 6.228h-0.494v-0.498h0.494v0.498z"></path>
<path d="M115.986 16v-0.388h0.494v0.388h-0.494zM115.986 15.114v-0.498h0.494v0.498h-0.494zM115.986 14.145v-0.498h0.494v0.498h-0.494zM115.986 13.176v-0.498h0.494v0.498h-0.494zM115.986 12.18v-0.498h0.494v0.498h-0.494zM115.986 11.211v-0.498h0.494v0.498h-0.494zM115.986 10.242v-0.498h0.494v0.498h-0.494zM115.986 9.273v-0.498h0.494v0.498h-0.494zM115.986 8.277v-0.498h0.494v0.498h-0.494zM115.986 7.308v-0.498h0.494v0.498h-0.494zM115.986 6.339v-0.498h0.494v0.498h-0.494zM115.986 5.343v-0.498h0.494v0.498h-0.494zM115.986 4.374v-0.498h0.494v0.498h-0.494z"></path>
<path d="M114.889 16h-0.494v-0.305h0.494v0.305zM114.889 15.197h-0.494v-0.498h0.494v0.498zM114.889 14.228h-0.494v-0.498h0.494v0.498zM114.889 13.259h-0.494v-0.498h0.494v0.498zM114.889 12.291h-0.494v-0.498h0.494v0.498zM114.889 11.294h-0.494v-0.498h0.494v0.498zM114.889 10.325h-0.494v-0.498h0.494v0.498zM114.889 9.356h-0.494v-0.498h0.494v0.498zM114.889 8.388h-0.494v-0.498h0.494v0.498zM114.889 7.391h-0.494v-0.471h0.494v0.471zM114.889 6.422h-0.494v-0.498h0.494v0.498z"></path>
<path d="M113.326 15.889h-0.494v-0.498h0.494v0.498zM113.326 14.893h-0.494v-0.498h0.494v0.498zM113.326 13.924h-0.494v-0.498h0.494v0.498zM113.326 12.955h-0.494v-0.498h0.494v0.498zM113.326 11.986h-0.494v-0.498h0.494v0.498zM113.326 10.99h-0.494v-0.471h0.494v0.471zM113.326 10.021h-0.494v-0.498h0.494v0.498zM113.326 9.052h-0.494v-0.498h0.494v0.498zM113.326 8.083h-0.494v-0.498h0.494v0.498zM113.326 7.087h-0.494v-0.498h0.494v0.498zM113.326 6.118h-0.494v-0.498h0.494v0.498zM113.326 5.149h-0.494v-0.498h0.494v0.498zM113.326 4.152h-0.494v-0.498h0.494v0.498zM113.326 3.183h-0.494v-0.471h0.494v0.471zM113.326 2.215h-0.494v-0.498h0.494v0.498z"></path>
<path d="M111.763 16h-0.494v-0.36h0.494v0.36zM111.763 15.142h-0.494v-0.471h0.494v0.471zM111.763 14.173h-0.494v-0.498h0.494v0.498zM111.763 13.204h-0.494v-0.498h0.494v0.498zM111.763 12.208h-0.494v-0.498h0.494v0.498z"></path>
<path d="M110.2 15.834h-0.494v-0.498h0.494v0.498zM110.2 14.865h-0.494v-0.498h0.494v0.498zM110.2 13.896h-0.494v-0.498h0.494v0.498zM110.2 12.9h-0.494v-0.498h0.494v0.498zM110.2 11.931h-0.494v-0.498h0.494v0.498zM110.2 10.962h-0.494v-0.498h0.494v0.498zM110.2 9.993h-0.494v-0.498h0.494v0.498zM110.2 8.997h-0.494v-0.498h0.494v0.498z"></path>
<path d="M108.637 15.779h-0.494v-0.498h0.494v0.498zM108.637 14.782h-0.494v-0.498h0.494v0.498zM108.637 13.813h-0.494v-0.498h0.494v0.498zM108.637 12.844h-0.494v-0.498h0.494v0.498zM108.637 11.848h-0.494v-0.498h0.494v0.498zM108.637 10.879h-0.494v-0.498h0.494v0.498zM108.637 9.91h-0.494v-0.498h0.494v0.498zM108.637 8.941h-0.494v-0.498h0.494v0.498zM108.637 7.945h-0.494v-0.471h0.494v0.471zM108.637 6.976h-0.494v-0.498h0.494v0.498z"></path>
<path d="M107.074 16h-0.493v-0.498h0.493v0.498zM107.074 15.003h-0.493v-0.498h0.493v0.498zM107.074 14.035h-0.493v-0.498h0.493v0.498zM107.074 13.066h-0.493v-0.498h0.493v0.498zM107.074 12.069h-0.493v-0.498h0.493v0.498zM107.074 11.1h-0.493v-0.498h0.493v0.498zM107.074 10.132h-0.493v-0.498h0.493v0.498zM107.074 9.163h-0.493v-0.498h0.493v0.498z"></path>
<path d="M105.484 15.612h-0.493v-0.498h0.493v0.498zM105.484 14.644h-0.493v-0.498h0.493v0.498zM105.484 13.675h-0.493v-0.498h0.493v0.498zM105.484 12.706h-0.493v-0.498h0.493v0.498zM105.484 11.709h-0.493v-0.498h0.493v0.498zM105.484 10.741h-0.493v-0.498h0.493v0.498zM105.484 9.772h-0.493v-0.498h0.493v0.498z"></path>
<path d="M103.921 15.585h-0.494v-0.498h0.494v0.498zM103.921 14.616h-0.494v-0.498h0.494v0.498zM103.921 13.619h-0.494v-0.498h0.494v0.498zM103.921 12.651h-0.494v-0.471h0.494v0.471zM103.921 11.682h-0.494v-0.498h0.494v0.498z"></path>
<path d="M102.358 15.086h-0.494v0.498h0.494v-0.498z"></path>
<path d="M100.795 16h-0.494v-0.028l0.494 0.028zM100.795 15.502h-0.494v-0.498h0.494v0.498zM100.795 14.533h-0.494v-0.498h0.494v0.498z"></path>
<path d="M99.205 15.806h-0.494v-0.498h0.494v0.498zM99.205 14.837h-0.494v-0.498h0.494v0.498zM99.205 13.868h-0.494v-0.498h0.494v0.498zM99.205 12.872h-0.494v-0.498h0.494v0.498z"></path>
<path d="M97.642 15.834h-0.494v-0.498h0.494v0.498zM97.642 14.865h-0.494v-0.498h0.494v0.498zM97.642 13.896h-0.494v-0.498h0.494v0.498zM97.642 12.9h-0.494v-0.498h0.494v0.498zM97.642 11.931h-0.494v-0.498h0.494v0.498zM97.642 10.962h-0.494v-0.498h0.494v0.498zM97.642 9.993h-0.494v-0.498h0.494v0.498z"></path>
<path d="M96.079 15.585h-0.494v-0.498h0.494v0.498zM96.079 14.616h-0.494v-0.498h0.494v0.498zM96.079 13.647h-0.494v-0.498h0.494v0.498zM96.079 12.678h-0.494v-0.498h0.494v0.498zM96.079 11.682h-0.494v-0.498h0.494v0.498zM96.079 10.713h-0.494v-0.498h0.494v0.498zM96.079 9.744h-0.494v-0.498h0.494v0.498zM96.079 8.747h-0.494v-0.498h0.494v0.498zM96.079 7.779h-0.494v-0.498h0.494v0.498zM96.079 6.81h-0.494v-0.498h0.494v0.498z"></path>
<path d="M94.050 16v-0.166h0.494v0.166h-0.494zM94.050 15.336v-0.498h0.494v0.498h-0.494z"></path>
<path d="M92.953 15.945h-0.494v-0.498h0.494v0.498zM92.953 14.948h-0.494v-0.498h0.494v0.498zM92.953 13.979h-0.494v-0.498h0.494v0.498z"></path>
<path d="M91.39 16h-0.494v-0.443h0.494v0.443zM91.39 15.086h-0.494v-0.498h0.494v0.498zM91.39 14.118h-0.494v-0.498h0.494v0.498zM91.39 13.149h-0.494v-0.498h0.494v0.498zM91.39 12.152h-0.494v-0.498h0.494v0.498zM91.39 11.183h-0.494v-0.498h0.494v0.498z"></path>
<path d="M89.827 15.585h-0.494v-0.498h0.494v0.498zM89.827 14.588h-0.494v-0.471h0.494v0.471zM89.827 13.619h-0.494v-0.498h0.494v0.498zM89.827 12.651h-0.494v-0.498h0.494v0.498zM89.827 11.682h-0.494v-0.498h0.494v0.498zM89.827 10.685h-0.494v-0.498h0.494v0.498zM89.827 9.716h-0.494v-0.498h0.494v0.498zM89.827 8.747h-0.494v-0.498h0.494v0.498zM89.827 7.751h-0.494v-0.498h0.494v0.498zM89.827 6.782h-0.494v-0.498h0.494v0.498zM89.827 5.813h-0.494v-0.498h0.494v0.498zM89.827 4.844h-0.494v-0.498h0.494v0.498z"></path>
<path d="M88.264 15.945h-0.494v-0.498h0.494v0.498zM88.264 14.976h-0.494v-0.498h0.494v0.498zM88.264 13.979h-0.494v-0.498h0.494v0.498zM88.264 13.010h-0.494v-0.498h0.494v0.498zM88.264 12.042h-0.494v-0.498h0.494v0.498zM88.264 11.073h-0.494v-0.498h0.494v0.498zM88.264 10.076h-0.494v-0.498h0.494v0.498zM88.264 9.107h-0.494v-0.498h0.494v0.498z"></path>
<path d="M86.701 15.917h-0.494v-0.498h0.494v0.498zM86.701 14.948h-0.494v-0.498h0.494v0.498zM86.701 13.952h-0.494v-0.498h0.494v0.498zM86.701 12.983h-0.494v-0.498h0.494v0.498zM86.701 12.014h-0.494v-0.498h0.494v0.498zM86.701 11.017h-0.494v-0.498h0.494v0.498zM86.701 10.048h-0.494v-0.498h0.494v0.498zM86.701 9.080h-0.494v-0.498h0.494v0.498zM86.701 8.111h-0.494v-0.498h0.494v0.498zM86.701 7.114h-0.494v-0.471h0.494v0.471zM86.701 6.145h-0.494v-0.498h0.494v0.498z"></path>
<path d="M85.111 16h-0.494v-0.388h0.494v0.388zM85.111 15.142h-0.494v-0.498h0.494v0.498zM85.111 14.145h-0.494v-0.498h0.494v0.498zM85.111 13.176h-0.494v-0.498h0.494v0.498zM85.111 12.208h-0.494v-0.498h0.494v0.498zM85.111 11.239h-0.494v-0.498h0.494v0.498zM85.111 10.242h-0.494v-0.498h0.494v0.498zM85.111 9.273h-0.494v-0.498h0.494v0.498zM85.111 8.305h-0.494v-0.498h0.494v0.498zM85.111 7.336h-0.494v-0.498h0.494v0.498zM85.111 6.339h-0.494v-0.498h0.494v0.498zM85.111 5.37h-0.494v-0.498h0.494v0.498zM85.111 4.401h-0.494v-0.498h0.494v0.498zM85.111 3.405h-0.494v-0.498h0.494v0.498zM85.111 2.436h-0.494v-0.471h0.494v0.471zM85.111 1.467h-0.494v-0.498h0.494v0.498zM85.111 0.498h-0.494v-0.498h0.494v0.498z"></path>
<path d="M83.548 15.779h-0.493v-0.498h0.493v0.498zM83.548 14.782h-0.493v-0.498h0.493v0.498zM83.548 13.813h-0.493v-0.498h0.493v0.498zM83.548 12.844h-0.493v-0.498h0.493v0.498zM83.548 11.848h-0.493v-0.498h0.493v0.498zM83.548 10.879h-0.493v-0.498h0.493v0.498zM83.548 9.91h-0.493v-0.498h0.493v0.498zM83.548 8.941h-0.493v-0.498h0.493v0.498zM83.548 7.945h-0.493v-0.471h0.493v0.471zM83.548 6.976h-0.493v-0.498h0.493v0.498zM83.548 6.007h-0.493v-0.498h0.493v0.498zM83.548 5.038h-0.493v-0.498h0.493v0.498zM83.548 4.042h-0.493v-0.498h0.493v0.498zM83.548 3.073h-0.493v-0.498h0.493v0.498zM83.548 2.104h-0.493v-0.498h0.493v0.498z"></path>
<path d="M81.985 15.751h-0.494v-0.498h0.494v0.498zM81.985 14.754h-0.494v-0.498h0.494v0.498zM81.985 13.785h-0.494v-0.498h0.494v0.498zM81.985 12.817h-0.494v-0.498h0.494v0.498zM81.985 11.82h-0.494v-0.471h0.494v0.471zM81.985 10.851h-0.494v-0.498h0.494v0.498zM81.985 9.882h-0.494v-0.498h0.494v0.498zM81.985 8.914h-0.494v-0.498h0.494v0.498zM81.985 7.917h-0.494v-0.498h0.494v0.498zM81.985 6.948h-0.494v-0.498h0.494v0.498zM81.985 5.979h-0.494v-0.498h0.494v0.498zM81.985 5.010h-0.494v-0.498h0.494v0.498z"></path>
<path d="M80.422 16h-0.494v-0.277h0.494v0.277zM80.422 15.225h-0.494v-0.498h0.494v0.498zM80.422 14.256h-0.494v-0.498h0.494v0.498zM80.422 13.287h-0.494v-0.498h0.494v0.498zM80.422 12.318h-0.494v-0.498h0.494v0.498zM80.422 11.322h-0.494v-0.498h0.494v0.498zM80.422 10.353h-0.494v-0.498h0.494v0.498zM80.422 9.384h-0.494v-0.498h0.494v0.498z"></path>
<path d="M78.832 16h-0.494v-0.138h0.494v0.138zM78.832 15.391h-0.494v-0.498h0.494v0.498zM78.832 14.422h-0.494v-0.498h0.494v0.498z"></path>
<path d="M77.269 15.695h-0.494v-0.471h0.494v0.471zM77.269 14.727h-0.494v-0.498h0.494v0.498zM77.269 13.758h-0.494v-0.498h0.494v0.498zM77.269 12.761h-0.494v-0.498h0.494v0.498z"></path>
<path d="M75.706 15.64h-0.494v-0.498h0.494v0.498zM75.706 14.644h-0.494v-0.498h0.494v0.498zM75.706 13.675h-0.494v-0.498h0.494v0.498zM75.706 12.706h-0.494v-0.498h0.494v0.498zM75.706 11.737h-0.494v-0.498h0.494v0.498zM75.706 10.741h-0.494v-0.498h0.494v0.498z"></path>
<path d="M74.143 16h-0.494v-0.471h0.494v0.471zM74.143 15.059h-0.494v-0.498h0.494v0.498zM74.143 14.090h-0.494v-0.498h0.494v0.498zM74.143 13.121h-0.494v-0.498h0.494v0.498zM74.143 12.125h-0.494v-0.498h0.494v0.498zM74.143 11.156h-0.494v-0.498h0.494v0.498zM74.143 10.187h-0.494v-0.498h0.494v0.498zM74.143 9.218h-0.494v-0.498h0.494v0.498zM74.143 8.221h-0.494v-0.471h0.494v0.471z"></path>
<path d="M72.114 16v-0.028h0.494v0.028h-0.494zM72.114 15.474v-0.498h0.494v0.498h-0.494zM72.114 14.505v-0.498h0.494v0.498h-0.494zM72.114 13.536v-0.498h0.494v0.498h-0.494zM72.114 12.567v-0.498h0.494v0.498h-0.494zM72.114 11.571v-0.498h0.494v0.498h-0.494zM72.114 10.602v-0.498h0.494v0.498h-0.494zM72.114 9.633v-0.498h0.494v0.498h-0.494zM72.114 8.637v-0.498h0.494v0.498h-0.494zM72.114 7.668v-0.471h0.494v0.471h-0.494zM72.114 6.699v-0.498h0.494v0.498h-0.494z"></path>
<path d="M71.017 16h-0.494v-0.166h0.494v0.166zM71.017 15.336h-0.494v-0.498h0.494v0.498zM71.017 14.367h-0.494v-0.498h0.494v0.498zM71.017 13.398h-0.494v-0.498h0.494v0.498zM71.017 12.429h-0.494v-0.498h0.494v0.498zM71.017 11.433h-0.494v-0.498h0.494v0.498zM71.017 10.464h-0.494v-0.498h0.494v0.498zM71.017 9.495h-0.494v-0.498h0.494v0.498zM71.017 8.498h-0.494v-0.471h0.494v0.471zM71.017 7.529h-0.494v-0.498h0.494v0.498zM71.017 6.561h-0.494v-0.498h0.494v0.498zM71.017 5.592h-0.494v-0.498h0.494v0.498zM71.017 4.595h-0.494v-0.498h0.494v0.498zM71.017 3.626h-0.494v-0.498h0.494v0.498z"></path>
<path d="M69.454 15.917h-0.494v-0.498h0.494v0.498zM69.454 14.948h-0.494v-0.498h0.494v0.498zM69.454 13.952h-0.494v-0.498h0.494v0.498zM69.454 12.983h-0.494v-0.498h0.494v0.498zM69.454 12.014h-0.494v-0.498h0.494v0.498zM69.454 11.017h-0.494v-0.498h0.494v0.498zM69.454 10.048h-0.494v-0.498h0.494v0.498zM69.454 9.080h-0.494v-0.498h0.494v0.498zM69.454 8.111h-0.494v-0.498h0.494v0.498zM69.454 7.114h-0.494v-0.471h0.494v0.471zM69.454 6.145h-0.494v-0.498h0.494v0.498z"></path>
<path d="M67.891 16h-0.494v-0.083h0.494v0.083zM67.891 15.446h-0.494v-0.498h0.494v0.498zM67.891 14.477h-0.494v-0.498h0.494v0.498zM67.891 13.509h-0.494v-0.498h0.494v0.498zM67.891 12.512h-0.494v-0.498h0.494v0.498zM67.891 11.543h-0.494v-0.498h0.494v0.498zM67.891 10.574h-0.494v-0.498h0.494v0.498zM67.891 9.578h-0.494v-0.498h0.494v0.498zM67.891 8.609h-0.494v-0.498h0.494v0.498z"></path>
<path d="M66.301 15.917h-0.494v-0.498h0.494v0.498zM66.301 14.92h-0.494v-0.498h0.494v0.498zM66.301 13.952h-0.494v-0.498h0.494v0.498zM66.301 12.983h-0.494v-0.498h0.494v0.498zM66.301 11.986h-0.494v-0.498h0.494v0.498zM66.301 11.017h-0.494v-0.498h0.494v0.498z"></path>
<path d="M64.738 16h-0.494v-0.388h0.494v0.388zM64.738 15.142h-0.494v-0.498h0.494v0.498z"></path>
<path d="M63.175 15.529h-0.494v-0.498h0.494v0.498zM63.175 14.561h-0.494v-0.498h0.494v0.498zM63.175 13.592h-0.494v-0.498h0.494v0.498zM63.175 12.623h-0.494v-0.498h0.494v0.498z"></path>
<path d="M61.612 16h-0.493v-0.055h0.493v0.055zM61.612 15.446h-0.493v-0.498h0.493v0.498zM61.612 14.477h-0.493v-0.498h0.493v0.498zM61.612 13.509h-0.493v-0.498h0.493v0.498zM61.612 12.512h-0.493v-0.498h0.493v0.498zM61.612 11.543h-0.493v-0.471h0.493v0.471zM61.612 10.574h-0.493v-0.498h0.493v0.498z"></path>
<path d="M60.049 16h-0.494v-0.221h0.494v0.221zM60.049 15.308h-0.494v-0.498h0.494v0.498zM60.049 14.339h-0.494v-0.498h0.494v0.498zM60.049 13.37h-0.494v-0.498h0.494v0.498zM60.049 12.374h-0.494v-0.471h0.494v0.471zM60.049 11.405h-0.494v-0.498h0.494v0.498zM60.049 10.436h-0.494v-0.498h0.494v0.498zM60.049 9.439h-0.494v-0.498h0.494v0.498zM60.049 8.471h-0.494v-0.498h0.494v0.498z"></path>
<path d="M58.459 15.502h-0.494v-0.498h0.494v0.498zM58.459 14.533h-0.494v-0.498h0.494v0.498zM58.459 13.564h-0.494v-0.498h0.494v0.498zM58.459 12.567h-0.494v-0.498h0.494v0.498zM58.459 11.599h-0.494v-0.498h0.494v0.498zM58.459 10.63h-0.494v-0.498h0.494v0.498zM58.459 9.633h-0.494v-0.498h0.494v0.498zM58.459 8.664h-0.494v-0.498h0.494v0.498zM58.459 7.696h-0.494v-0.498h0.494v0.498zM58.459 6.727h-0.494v-0.498h0.494v0.498zM58.459 5.73h-0.494v-0.471h0.494v0.471z"></path>
<path d="M56.896 15.917h-0.494v-0.498h0.494v0.498zM56.896 14.948h-0.494v-0.498h0.494v0.498zM56.896 13.979h-0.494v-0.498h0.494v0.498zM56.896 12.983h-0.494v-0.498h0.494v0.498zM56.896 12.014h-0.494v-0.498h0.494v0.498zM56.896 11.045h-0.494v-0.498h0.494v0.498zM56.896 10.076h-0.494v-0.498h0.494v0.498zM56.896 9.080h-0.494v-0.498h0.494v0.498zM56.896 8.111h-0.494v-0.498h0.494v0.498zM56.896 7.142h-0.494v-0.498h0.494v0.498zM56.896 6.145h-0.494v-0.498h0.494v0.498zM56.896 5.176h-0.494v-0.471h0.494v0.471zM56.896 4.208h-0.494v-0.498h0.494v0.498zM56.896 3.239h-0.494v-0.498h0.494v0.498zM56.896 2.242h-0.494v-0.471h0.494v0.471zM56.896 1.273h-0.494v-0.498h0.494v0.498z"></path>
<path d="M55.333 16h-0.494v-0.083h0.494v0.083zM55.333 15.419h-0.494v-0.471h0.494v0.471zM55.333 14.45h-0.494v-0.498h0.494v0.498zM55.333 13.481h-0.494v-0.498h0.494v0.498zM55.333 12.484h-0.494v-0.498h0.494v0.498zM55.333 11.516h-0.494v-0.498h0.494v0.498zM55.333 10.547h-0.494v-0.498h0.494v0.498zM55.333 9.578h-0.494v-0.498h0.494v0.498zM55.333 8.581h-0.494v-0.498h0.494v0.498zM55.333 7.612h-0.494v-0.498h0.494v0.498zM55.333 6.644h-0.494v-0.498h0.494v0.498zM55.333 5.675h-0.494v-0.498h0.494v0.498zM55.333 4.678h-0.494v-0.498h0.494v0.498zM55.333 3.709h-0.494v-0.498h0.494v0.498zM55.333 2.74h-0.494v-0.498h0.494v0.498z"></path>
<path d="M53.77 15.889h-0.494v-0.498h0.494v0.498zM53.77 14.92h-0.494v-0.498h0.494v0.498zM53.77 13.924h-0.494v-0.498h0.494v0.498zM53.77 12.955h-0.494v-0.498h0.494v0.498zM53.77 11.986h-0.494v-0.498h0.494v0.498zM53.77 11.017h-0.494v-0.498h0.494v0.498zM53.77 10.021h-0.494v-0.498h0.494v0.498zM53.77 9.052h-0.494v-0.498h0.494v0.498zM53.77 8.083h-0.494v-0.498h0.494v0.498zM53.77 7.114h-0.494v-0.498h0.494v0.498zM53.77 6.118h-0.494v-0.498h0.494v0.498zM53.77 5.149h-0.494v-0.498h0.494v0.498z"></path>
<path d="M52.207 16h-0.494v-0.194h0.494v0.194zM52.207 15.336h-0.494v-0.498h0.494v0.498zM52.207 14.367h-0.494v-0.498h0.494v0.498zM52.207 13.37h-0.494v-0.498h0.494v0.498zM52.207 12.401h-0.494v-0.498h0.494v0.498zM52.207 11.433h-0.494v-0.498h0.494v0.498zM52.207 10.436h-0.494v-0.471h0.494v0.471zM52.207 9.467h-0.494v-0.498h0.494v0.498zM52.207 8.498h-0.494v-0.498h0.494v0.498zM52.207 7.529h-0.494v-0.498h0.494v0.498z"></path>
<path d="M50.178 16v-0.388h0.493v0.388h-0.493zM50.178 15.114v-0.498h0.493v0.498h-0.493zM50.178 14.145v-0.498h0.493v0.498h-0.493zM50.178 13.176v-0.498h0.493v0.498h-0.493z"></path>
<path d="M49.081 15.502h-0.494v-0.498h0.494v0.498zM49.081 14.533h-0.494v-0.498h0.494v0.498z"></path>
<path d="M47.491 15.529h-0.494v-0.498h0.494v0.498zM47.491 14.561h-0.494v-0.498h0.494v0.498zM47.491 13.564h-0.494v-0.498h0.494v0.498zM47.491 12.595h-0.494v-0.498h0.494v0.498zM47.491 11.626h-0.494v-0.498h0.494v0.498zM47.491 10.657h-0.494v-0.498h0.494v0.498zM47.491 9.661h-0.494v-0.498h0.494v0.498zM47.491 8.692h-0.494v-0.498h0.494v0.498zM47.491 7.723h-0.494v-0.498h0.494v0.498zM47.491 6.754h-0.494v-0.498h0.494v0.498zM47.491 5.758h-0.494v-0.498h0.494v0.498z"></path>
<path d="M45.928 16h-0.494v-0.138h0.494v0.138zM45.928 15.363h-0.494v-0.498h0.494v0.498zM45.928 14.394h-0.494v-0.498h0.494v0.498zM45.928 13.426h-0.494v-0.498h0.494v0.498zM45.928 12.457h-0.494v-0.498h0.494v0.498zM45.928 11.46h-0.494v-0.498h0.494v0.498zM45.928 10.491h-0.494v-0.498h0.494v0.498zM45.928 9.523h-0.494v-0.498h0.494v0.498zM45.928 8.554h-0.494v-0.498h0.494v0.498z"></path>
<path d="M44.365 16h-0.494v-0.166h0.494v0.166zM44.365 15.363h-0.494v-0.498h0.494v0.498zM44.365 14.394h-0.494v-0.498h0.494v0.498z"></path>
<path d="M42.802 16h-0.494v-0.221h0.494v0.221zM42.802 15.28h-0.494v-0.498h0.494v0.498zM42.802 14.311h-0.494v-0.498h0.494v0.498zM42.802 13.315h-0.494v-0.498h0.494v0.498z"></path>
<path d="M41.239 16h-0.494v-0.166h0.494v0.166zM41.239 15.336h-0.494v-0.498h0.494v0.498zM41.239 14.367h-0.494v-0.498h0.494v0.498zM41.239 13.398h-0.494v-0.498h0.494v0.498zM41.239 12.429h-0.494v-0.498h0.494v0.498zM41.239 11.433h-0.494v-0.498h0.494v0.498zM41.239 10.464h-0.494v-0.498h0.494v0.498zM41.239 9.495h-0.494v-0.498h0.494v0.498zM41.239 8.498h-0.494v-0.471h0.494v0.471zM41.239 7.529h-0.494v-0.498h0.494v0.498zM41.239 6.561h-0.494v-0.498h0.494v0.498z"></path>
<path d="M39.676 16h-0.493v-0.36h0.493v0.36zM39.676 15.17h-0.493v-0.498h0.493v0.498zM39.676 14.201h-0.493v-0.498h0.493v0.498zM39.676 13.204h-0.493v-0.471h0.493v0.471zM39.676 12.235h-0.493v-0.498h0.493v0.498zM39.676 11.266h-0.493v-0.498h0.493v0.498zM39.676 10.298h-0.493v-0.498h0.493v0.498zM39.676 9.301h-0.493v-0.498h0.493v0.498zM39.676 8.332h-0.493v-0.498h0.493v0.498z"></path>
<path d="M38.086 15.806h-0.493v-0.498h0.493v0.498zM38.086 14.837h-0.493v-0.498h0.493v0.498zM38.086 13.841h-0.493v-0.498h0.493v0.498zM38.086 12.872h-0.493v-0.498h0.493v0.498zM38.086 11.903h-0.493v-0.498h0.493v0.498zM38.086 10.907h-0.493v-0.498h0.493v0.498zM38.086 9.938h-0.493v-0.498h0.493v0.498z"></path>
<path d="M36.523 16h-0.494v-0.305h0.494v0.305zM36.523 15.225h-0.494v-0.498h0.494v0.498zM36.523 14.256h-0.494v-0.498h0.494v0.498zM36.523 13.26h-0.494v-0.498h0.494v0.498zM36.523 12.291h-0.494v-0.498h0.494v0.498zM36.523 11.322h-0.494v-0.498h0.494v0.498zM36.523 10.325h-0.494v-0.498h0.494v0.498zM36.523 9.356h-0.494v-0.498h0.494v0.498zM36.523 8.388h-0.494v-0.498h0.494v0.498zM36.523 7.419h-0.494v-0.498h0.494v0.498zM36.523 6.422h-0.494v-0.498h0.494v0.498zM36.523 5.453h-0.494v-0.498h0.494v0.498zM36.523 4.484h-0.494v-0.498h0.494v0.498zM36.523 3.516h-0.494v-0.498h0.494v0.498zM36.523 2.519h-0.494v-0.471h0.494v0.471zM36.523 1.55h-0.494v-0.498h0.494v0.498z"></path>
<path d="M34.96 16h-0.494v-0.249h0.494v0.249zM34.96 15.28h-0.494v-0.498h0.494v0.498zM34.96 14.284h-0.494v-0.498h0.494v0.498zM34.96 13.315h-0.494v-0.498h0.494v0.498zM34.96 12.346h-0.494v-0.498h0.494v0.498zM34.96 11.377h-0.494v-0.498h0.494v0.498zM34.96 10.381h-0.494v-0.498h0.494v0.498zM34.96 9.412h-0.494v-0.498h0.494v0.498zM34.96 8.443h-0.494v-0.498h0.494v0.498zM34.96 7.474h-0.494v-0.498h0.494v0.498zM34.96 6.478h-0.494v-0.498h0.494v0.498zM34.96 5.509h-0.494v-0.498h0.494v0.498zM34.96 4.54h-0.494v-0.498h0.494v0.498zM34.96 3.543h-0.494v-0.498h0.494v0.498z"></path>
<path d="M33.397 16h-0.494v-0.277h0.494v0.277zM33.397 15.225h-0.494v-0.498h0.494v0.498zM33.397 14.256h-0.494v-0.498h0.494v0.498zM33.397 13.287h-0.494v-0.498h0.494v0.498zM33.397 12.318h-0.494v-0.498h0.494v0.498zM33.397 11.322h-0.494v-0.498h0.494v0.498zM33.397 10.353h-0.494v-0.498h0.494v0.498zM33.397 9.384h-0.494v-0.498h0.494v0.498zM33.397 8.415h-0.494v-0.498h0.494v0.498zM33.397 7.419h-0.494v-0.498h0.494v0.498zM33.397 6.45h-0.494v-0.498h0.494v0.498z"></path>
<path d="M31.834 16h-0.494v-0.028h0.494v0.028zM31.834 15.502h-0.494v-0.498h0.494v0.498zM31.834 14.505h-0.494v-0.498h0.494v0.498zM31.834 13.536h-0.494v-0.498h0.494v0.498zM31.834 12.567h-0.494v-0.498h0.494v0.498zM31.834 11.571h-0.494v-0.498h0.494v0.498zM31.834 10.602h-0.494v-0.498h0.494v0.498zM31.834 9.633h-0.494v-0.498h0.494v0.498zM31.834 8.664h-0.494v-0.498h0.494v0.498zM31.834 7.668h-0.494v-0.471h0.494v0.471z"></path>
<path d="M30.271 16h-0.494v-0.471h0.494v0.471zM30.271 15.059h-0.494v-0.498h0.494v0.498zM30.271 14.090h-0.494v-0.498h0.494v0.498zM30.271 13.093h-0.494v-0.498h0.494v0.498zM30.271 12.125h-0.494v-0.498h0.494v0.498zM30.271 11.156h-0.494v-0.498h0.494v0.498zM30.271 10.187h-0.494v-0.498h0.494v0.498zM30.271 9.19h-0.494v-0.498h0.494v0.498z"></path>
<path d="M28.242 15.668v-0.498h0.493v0.498h-0.493zM28.242 14.699v-0.498h0.493v0.498h-0.493zM28.242 13.702v-0.498h0.493v0.498h-0.493zM28.242 12.734v-0.498h0.493v0.498h-0.493z"></path>
<path d="M27.118 16h-0.493v-0.055h0.493v0.055zM27.118 15.474h-0.493v-0.498h0.493v0.498zM27.118 14.477h-0.493v-0.498h0.493v0.498z"></path>
<path d="M25.555 16h-0.494v-0.304h0.494v0.304zM25.555 15.225h-0.494v-0.498h0.494v0.498zM25.555 14.256h-0.494v-0.498h0.494v0.498zM25.555 13.26h-0.494v-0.498h0.494v0.498zM25.555 12.291h-0.494v-0.498h0.494v0.498zM25.555 11.322h-0.494v-0.498h0.494v0.498z"></path>
<path d="M23.992 15.834h-0.494v-0.498h0.494v0.498zM23.992 14.865h-0.494v-0.498h0.494v0.498zM23.992 13.868h-0.494v-0.498h0.494v0.498zM23.992 12.9h-0.494v-0.498h0.494v0.498zM23.992 11.931h-0.494v-0.498h0.494v0.498zM23.992 10.962h-0.494v-0.498h0.494v0.498zM23.992 9.965h-0.494v-0.498h0.494v0.498zM23.992 8.997h-0.494v-0.498h0.494v0.498zM23.992 8.028h-0.494v-0.498h0.494v0.498zM23.992 7.031h-0.494v-0.498h0.494v0.498z"></path>
<path d="M22.429 16h-0.494v-0.055h0.494v0.055zM22.429 15.474h-0.494v-0.498h0.494v0.498zM22.429 14.477h-0.494v-0.498h0.494v0.498zM22.429 13.509h-0.494v-0.498h0.494v0.498zM22.429 12.54h-0.494v-0.498h0.494v0.498zM22.429 11.571h-0.494v-0.498h0.494v0.498zM22.429 10.574h-0.494v-0.498h0.494v0.498z"></path>
<path d="M20.866 16h-0.494v-0.471h0.494v0.471zM20.866 15.059h-0.494v-0.498h0.494v0.498zM20.866 14.090h-0.494v-0.498h0.494v0.498zM20.866 13.093h-0.494v-0.498h0.494v0.498zM20.866 12.125h-0.494v-0.498h0.494v0.498zM20.866 11.156h-0.494v-0.498h0.494v0.498zM20.866 10.187h-0.494v-0.498h0.494v0.498zM20.866 9.19h-0.494v-0.498h0.494v0.498z"></path>
<path d="M19.303 15.474h-0.494v-0.498h0.494v0.498zM19.303 14.505h-0.494v-0.498h0.494v0.498zM19.303 13.536h-0.494v-0.498h0.494v0.498zM19.303 12.567h-0.494v-0.498h0.494v0.498z"></path>
<path d="M17.741 16h-0.494v-0.332h0.494v0.332zM17.741 15.197h-0.494v-0.498h0.494v0.498zM17.741 14.228h-0.494v-0.498h0.494v0.498zM17.741 13.232h-0.494v-0.498h0.494v0.498zM17.741 12.263h-0.494v-0.498h0.494v0.498zM17.741 11.294h-0.494v-0.498h0.494v0.498zM17.741 10.298h-0.494v-0.498h0.494v0.498zM17.741 9.329h-0.494v-0.471h0.494v0.471zM17.741 8.36h-0.494v-0.498h0.494v0.498zM17.741 7.391h-0.494v-0.498h0.494v0.498zM17.741 6.394h-0.494v-0.498h0.494v0.498zM17.741 5.426h-0.494v-0.498h0.494v0.498zM17.741 4.457h-0.494v-0.498h0.494v0.498z"></path>
<path d="M16.15 15.612h-0.494v-0.498h0.494v0.498zM16.15 14.644h-0.494v-0.498h0.494v0.498zM16.15 13.647h-0.494v-0.498h0.494v0.498zM16.15 12.678h-0.494v-0.498h0.494v0.498zM16.15 11.709h-0.494v-0.498h0.494v0.498zM16.15 10.74h-0.494v-0.498h0.494v0.498zM16.15 9.744h-0.494v-0.498h0.494v0.498zM16.15 8.775h-0.494v-0.498h0.494v0.498zM16.15 7.806h-0.494v-0.498h0.494v0.498zM16.15 6.837h-0.494v-0.498h0.494v0.498z"></path>
<path d="M14.587 15.889h-0.494v-0.498h0.494v0.498zM14.587 14.893h-0.494v-0.498h0.494v0.498zM14.587 13.924h-0.494v-0.498h0.494v0.498zM14.587 12.955h-0.494v-0.498h0.494v0.498zM14.587 11.959h-0.494v-0.498h0.494v0.498zM14.587 10.99h-0.494v-0.471h0.494v0.471zM14.587 10.021h-0.494v-0.498h0.494v0.498zM14.587 9.052h-0.494v-0.498h0.494v0.498zM14.587 8.055h-0.494v-0.498h0.494v0.498z"></path>
<path d="M13.024 15.723h-0.494v-0.498h0.494v0.498zM13.024 14.754h-0.494v-0.498h0.494v0.498zM13.024 13.785h-0.494v-0.498h0.494v0.498zM13.024 12.789h-0.494v-0.498h0.494v0.498zM13.024 11.82h-0.494v-0.471h0.494v0.471zM13.024 10.851h-0.494v-0.498h0.494v0.498zM13.024 9.882h-0.494v-0.498h0.494v0.498zM13.024 8.886h-0.494v-0.498h0.494v0.498zM13.024 7.917h-0.494v-0.498h0.494v0.498zM13.024 6.948h-0.494v-0.498h0.494v0.498zM13.024 5.979h-0.494v-0.498h0.494v0.498zM13.024 4.983h-0.494v-0.498h0.494v0.498zM13.024 4.014h-0.494v-0.498h0.494v0.498z"></path>
<path d="M11.461 15.529h-0.494v-0.498h0.494v0.498zM11.461 14.561h-0.494v-0.498h0.494v0.498zM11.461 13.564h-0.494v-0.498h0.494v0.498zM11.461 12.595h-0.494v-0.498h0.494v0.498zM11.461 11.626h-0.494v-0.498h0.494v0.498zM11.461 10.657h-0.494v-0.498h0.494v0.498zM11.461 9.661h-0.494v-0.498h0.494v0.498zM11.461 8.692h-0.494v-0.498h0.494v0.498zM11.461 7.723h-0.494v-0.498h0.494v0.498zM11.461 6.754h-0.494v-0.498h0.494v0.498zM11.461 5.758h-0.494v-0.498h0.494v0.498z"></path>
<path d="M9.899 16h-0.494v-0.166h0.494v0.166zM9.899 15.363h-0.494v-0.498h0.494v0.498zM9.899 14.394h-0.494v-0.498h0.494v0.498z"></path>
<path d="M8.308 16h-0.494v-0.166h0.494v0.166zM8.308 15.363h-0.494v-0.498h0.494v0.498zM8.308 14.394h-0.494v-0.498h0.494v0.498z"></path>
<path d="M6.745 15.972h-0.494v-0.471h0.494v0.471zM6.745 15.003h-0.494v-0.498h0.494v0.498zM6.745 14.035h-0.494v-0.498h0.494v0.498zM6.745 13.038h-0.494v-0.498h0.494v0.498z"></path>
<path d="M5.182 15.668h-0.494v-0.498h0.494v0.498zM5.182 14.699h-0.494v-0.498h0.494v0.498zM5.182 13.73h-0.494v-0.498h0.494v0.498zM5.182 12.734h-0.494v-0.498h0.494v0.498zM5.182 11.765h-0.494v-0.498h0.494v0.498zM5.182 10.796h-0.494v-0.498h0.494v0.498zM5.182 9.827h-0.494v-0.498h0.494v0.498z"></path>
<path d="M3.619 16h-0.494v-0.471h0.494v0.471zM3.619 15.031h-0.494v-0.498h0.494v0.498zM3.619 14.062h-0.494v-0.498h0.494v0.498zM3.619 13.093h-0.494v-0.498h0.494v0.498zM3.619 12.125h-0.494v-0.498h0.494v0.498z"></path>
<path d="M2.056 16h-0.494v-0.221h0.494v0.221zM2.056 15.308h-0.494v-0.498h0.494v0.498zM2.056 14.311h-0.494v-0.471h0.494v0.471zM2.056 13.343h-0.494v-0.498h0.494v0.498z"></path>
<path d="M0.494 15.557h-0.494v-0.498h0.494v0.498zM0.494 14.561h-0.494v-0.498h0.494v0.498z"></path>
<path d="M133.699 17.246h-0.494v-0.498h0.494v0.498zM133.699 16.277h-0.494v-0.277h0.494v0.277z"></path>
<path d="M132.136 18.879h-0.494v-0.498h0.494v0.498zM132.136 17.91h-0.494v-0.498h0.494v0.498zM132.136 16.941h-0.494v-0.498h0.494v0.498z"></path>
<path d="M130.573 20.152h-0.494v-0.498h0.494v0.498zM130.573 19.156h-0.494v-0.498h0.494v0.498zM130.573 18.187h-0.494v-0.471h0.494v0.471zM130.573 17.218h-0.494v-0.498h0.494v0.498zM130.573 16.249h-0.494v-0.249h0.494v0.249z"></path>
<path d="M129.010 17.633h-0.493v-0.498h0.493v0.498zM129.010 16.637h-0.493v-0.498h0.493v0.498z"></path>
<path d="M127.447 19.1h-0.494v-0.498h0.494v0.498zM127.447 18.131h-0.494v-0.498h0.494v0.498zM127.447 17.163h-0.494v-0.498h0.494v0.498zM127.447 16.166h-0.494v-0.194h0.494v0.194z"></path>
<path d="M125.884 21.619h-0.494v-0.498h0.494v0.498zM125.884 20.651h-0.494v-0.498h0.494v0.498zM125.884 19.682h-0.494v-0.498h0.494v0.498zM125.884 18.685h-0.494v-0.498h0.494v0.498zM125.884 17.716h-0.494v-0.498h0.494v0.498zM125.884 16.747h-0.494v-0.498h0.494v0.498z"></path>
<path d="M124.294 18.076h-0.494v-0.498h0.494v0.498zM124.294 17.080h-0.494v-0.471h0.494v0.471zM124.294 16.111h-0.494v-0.138h0.494v0.138z"></path>
<path d="M122.731 20.374h-0.494v-0.498h0.494v0.498zM122.731 19.377h-0.494v-0.498h0.494v0.498zM122.731 18.408h-0.494v-0.498h0.494v0.498zM122.731 17.439h-0.494v-0.498h0.494v0.498zM122.731 16.471h-0.494v-0.471h0.494v0.471z"></path>
<path d="M121.168 22.782h-0.494v-0.498h0.494v0.498zM121.168 21.785h-0.494v-0.471h0.494v0.471zM121.168 20.817h-0.494v-0.498h0.494v0.498zM121.168 19.848h-0.494v-0.498h0.494v0.498zM121.168 18.879h-0.494v-0.498h0.494v0.498zM121.168 17.882h-0.494v-0.498h0.494v0.498zM121.168 16.913h-0.494v-0.498h0.494v0.498z"></path>
<path d="M119.577 22.395h-0.494v-0.498h0.494v0.498zM119.577 21.426h-0.494v-0.498h0.494v0.498zM119.577 20.457h-0.494v-0.498h0.494v0.498zM119.577 19.46h-0.494v-0.498h0.494v0.498zM119.577 18.491h-0.494v-0.498h0.494v0.498zM119.577 17.523h-0.494v-0.498h0.494v0.498zM119.577 16.554h-0.494v-0.498h0.494v0.498z"></path>
<path d="M118.014 26.242h-0.494v-0.498h0.494v0.498zM118.014 25.273h-0.494v-0.498h0.494v0.498zM118.014 24.304h-0.494v-0.498h0.494v0.498zM118.014 23.336h-0.494v-0.498h0.494v0.498zM118.014 22.339h-0.494v-0.471h0.494v0.471zM118.014 21.37h-0.494v-0.498h0.494v0.498zM118.014 20.401h-0.494v-0.498h0.494v0.498zM118.014 19.433h-0.494v-0.498h0.494v0.498zM118.014 18.436h-0.494v-0.498h0.494v0.498zM118.014 17.467h-0.494v-0.498h0.494v0.498zM118.014 16.498h-0.494v-0.498h0.494v0.498z"></path>
<path d="M115.986 28.097v-0.498h0.494v0.498h-0.494zM115.986 27.128v-0.498h0.494v0.498h-0.494zM115.986 26.159v-0.498h0.494v0.498h-0.494zM115.986 25.163v-0.498h0.494v0.498h-0.494zM115.986 24.194v-0.498h0.494v0.498h-0.494zM115.986 23.225v-0.498h0.494v0.498h-0.494zM115.986 22.256v-0.498h0.494v0.498h-0.494zM115.986 21.26v-0.498h0.494v0.498h-0.494zM115.986 20.291v-0.498h0.494v0.498h-0.494zM115.986 19.322v-0.498h0.494v0.498h-0.494zM115.986 18.325v-0.498h0.494v0.498h-0.494zM115.986 17.356v-0.471h0.494v0.471h-0.494zM115.986 16.388v-0.388h0.494v0.388h-0.494z"></path>
<path d="M114.889 26.048h-0.494v-0.498h0.494v0.498zM114.889 25.080h-0.494v-0.498h0.494v0.498zM114.889 24.111h-0.494v-0.498h0.494v0.498zM114.889 23.142h-0.494v-0.498h0.494v0.498zM114.889 22.145h-0.494v-0.498h0.494v0.498zM114.889 21.176h-0.494v-0.498h0.494v0.498zM114.889 20.208h-0.494v-0.498h0.494v0.498zM114.889 19.211h-0.494v-0.498h0.494v0.498zM114.889 18.242h-0.494v-0.498h0.494v0.498zM114.889 17.273h-0.494v-0.498h0.494v0.498zM114.889 16.305h-0.494v-0.305h0.494v0.305z"></path>
<path d="M113.326 30.256h-0.494v-0.498h0.494v0.498zM113.326 29.287h-0.494v-0.498h0.494v0.498zM113.326 28.318h-0.494v-0.498h0.494v0.498zM113.326 27.349h-0.494v-0.498h0.494v0.498zM113.326 26.353h-0.494v-0.498h0.494v0.498zM113.326 25.384h-0.494v-0.498h0.494v0.498zM113.326 24.415h-0.494v-0.498h0.494v0.498zM113.326 23.446h-0.494v-0.498h0.494v0.498zM113.326 22.45h-0.494v-0.498h0.494v0.498zM113.326 21.481h-0.494v-0.498h0.494v0.498zM113.326 20.512h-0.494v-0.498h0.494v0.498zM113.326 19.516h-0.494v-0.498h0.494v0.498zM113.326 18.547h-0.494v-0.498h0.494v0.498zM113.326 17.578h-0.494v-0.498h0.494v0.498zM113.326 16.609h-0.494v-0.498h0.494v0.498z"></path>
<path d="M111.763 20.263h-0.494v-0.498h0.494v0.498zM111.763 19.294h-0.494v-0.498h0.494v0.498zM111.763 18.298h-0.494v-0.498h0.494v0.498zM111.763 17.329h-0.494v-0.498h0.494v0.498zM111.763 16.36h-0.494v-0.36h0.494v0.36z"></path>
<path d="M110.2 23.474h-0.494v-0.498h0.494v0.498zM110.2 22.505h-0.494v-0.498h0.494v0.498zM110.2 21.536h-0.494v-0.498h0.494v0.498zM110.2 20.54h-0.494v-0.498h0.494v0.498zM110.2 19.571h-0.494v-0.498h0.494v0.498zM110.2 18.602h-0.494v-0.498h0.494v0.498zM110.2 17.606h-0.494v-0.498h0.494v0.498zM110.2 16.637h-0.494v-0.498h0.494v0.498z"></path>
<path d="M108.637 25.495h-0.494v-0.498h0.494v0.498zM108.637 24.526h-0.494v-0.498h0.494v0.498zM108.637 23.557h-0.494v-0.498h0.494v0.498zM108.637 22.561h-0.494v-0.498h0.494v0.498zM108.637 21.592h-0.494v-0.498h0.494v0.498zM108.637 20.623h-0.494v-0.498h0.494v0.498zM108.637 19.654h-0.494v-0.498h0.494v0.498zM108.637 18.657h-0.494v-0.498h0.494v0.498zM108.637 17.689h-0.494v-0.498h0.494v0.498zM108.637 16.72h-0.494v-0.498h0.494v0.498z"></path>
<path d="M107.074 23.336h-0.493v-0.498h0.493v0.498zM107.074 22.367h-0.493v-0.498h0.493v0.498zM107.074 21.37h-0.493v-0.498h0.493v0.498zM107.074 20.401h-0.493v-0.498h0.493v0.498zM107.074 19.433h-0.493v-0.498h0.493v0.498zM107.074 18.436h-0.493v-0.498h0.493v0.498zM107.074 17.467h-0.493v-0.498h0.493v0.498zM107.074 16.498h-0.493v-0.498h0.493v0.498z"></path>
<path d="M105.484 22.727h-0.493v-0.498h0.493v0.498zM105.484 21.73h-0.493v-0.498h0.493v0.498zM105.484 20.761h-0.493v-0.498h0.493v0.498zM105.484 19.792h-0.493v-0.498h0.493v0.498zM105.484 18.824h-0.493v-0.498h0.493v0.498zM105.484 17.827h-0.493v-0.498h0.493v0.498zM105.484 16.858h-0.493v-0.498h0.493v0.498z"></path>
<path d="M103.921 20.789h-0.494v-0.498h0.494v0.498zM103.921 19.82h-0.494v-0.498h0.494v0.498zM103.921 18.851h-0.494v-0.498h0.494v0.498zM103.921 17.882h-0.494v-0.498h0.494v0.498zM103.921 16.886h-0.494v-0.498h0.494v0.498z"></path>
<path d="M102.358 16.415h-0.494v0.498h0.494v-0.498z"></path>
<path d="M100.795 17.965h-0.494v-0.498h0.494v0.498zM100.795 16.969h-0.494v-0.498h0.494v0.498zM100.795 16h-0.494v-0.028l0.494 0.028z"></path>
<path d="M99.205 19.599h-0.494v-0.498h0.494v0.498zM99.205 18.63h-0.494v-0.498h0.494v0.498zM99.205 17.633h-0.494v-0.471h0.494v0.471zM99.205 16.664h-0.494v-0.498h0.494v0.498z"></path>
<path d="M97.642 22.505h-0.494v-0.498h0.494v0.498zM97.642 21.536h-0.494v-0.498h0.494v0.498zM97.642 20.54h-0.494v-0.498h0.494v0.498zM97.642 19.571h-0.494v-0.498h0.494v0.498zM97.642 18.602h-0.494v-0.498h0.494v0.498zM97.642 17.606h-0.494v-0.498h0.494v0.498zM97.642 16.637h-0.494v-0.498h0.494v0.498z"></path>
<path d="M96.079 25.689h-0.494v-0.498h0.494v0.498zM96.079 24.692h-0.494v-0.498h0.494v0.498zM96.079 23.723h-0.494v-0.498h0.494v0.498zM96.079 22.754h-0.494v-0.498h0.494v0.498zM96.079 21.758h-0.494v-0.498h0.494v0.498zM96.079 20.789h-0.494v-0.498h0.494v0.498zM96.079 19.82h-0.494v-0.498h0.494v0.498zM96.079 18.851h-0.494v-0.498h0.494v0.498zM96.079 17.855h-0.494v-0.498h0.494v0.498zM96.079 16.886h-0.494v-0.498h0.494v0.498z"></path>
<path d="M94.050 17.135v-0.498h0.494v0.498h-0.494zM94.050 16.166v-0.166h0.494v0.166h-0.494z"></path>
<path d="M92.953 18.491h-0.494v-0.498h0.494v0.498zM92.953 17.523h-0.494v-0.498h0.494v0.498zM92.953 16.554h-0.494v-0.498h0.494v0.498z"></path>
<path d="M91.39 21.287h-0.494v-0.498h0.494v0.498zM91.39 20.318h-0.494v-0.498h0.494v0.498zM91.39 19.349h-0.494v-0.498h0.494v0.498zM91.39 18.353h-0.494v-0.498h0.494v0.498zM91.39 17.384h-0.494v-0.498h0.494v0.498zM91.39 16.415h-0.494v-0.443h0.494v0.443z"></path>
<path d="M89.827 27.654h-0.494v-0.498h0.494v0.498zM89.827 26.658h-0.494v-0.498h0.494v0.498zM89.827 25.689h-0.494v-0.498h0.494v0.498zM89.827 24.72h-0.494v-0.498h0.494v0.498zM89.827 23.751h-0.494v-0.498h0.494v0.498zM89.827 22.754h-0.494v-0.498h0.494v0.498zM89.827 21.785h-0.494v-0.498h0.494v0.498zM89.827 20.817h-0.494v-0.498h0.494v0.498zM89.827 19.848h-0.494v-0.498h0.494v0.498zM89.827 18.851h-0.494v-0.498h0.494v0.498zM89.827 17.882h-0.494v-0.498h0.494v0.498zM89.827 16.913h-0.494v-0.498h0.494v0.498z"></path>
<path d="M88.264 23.363h-0.494v-0.498h0.494v0.498zM88.264 22.395h-0.494v-0.498h0.494v0.498zM88.264 21.426h-0.494v-0.498h0.494v0.498zM88.264 20.457h-0.494v-0.498h0.494v0.498zM88.264 19.46h-0.494v-0.498h0.494v0.498zM88.264 18.491h-0.494v-0.498h0.494v0.498zM88.264 17.523h-0.494v-0.498h0.494v0.498zM88.264 16.554h-0.494v-0.498h0.494v0.498z"></path>
<path d="M86.701 26.325h-0.494v-0.498h0.494v0.498zM86.701 25.357h-0.494v-0.498h0.494v0.498zM86.701 24.387h-0.494v-0.498h0.494v0.498zM86.701 23.391h-0.494v-0.498h0.494v0.498zM86.701 22.422h-0.494v-0.498h0.494v0.498zM86.701 21.453h-0.494v-0.498h0.494v0.498zM86.701 20.484h-0.494v-0.498h0.494v0.498zM86.701 19.488h-0.494v-0.498h0.494v0.498zM86.701 18.519h-0.494v-0.498h0.494v0.498zM86.701 17.55h-0.494v-0.498h0.494v0.498zM86.701 16.581h-0.494v-0.498h0.494v0.498z"></path>
<path d="M85.111 32h-0.494v-0.498h0.494v0.498zM85.111 31.003h-0.494v-0.498h0.494v0.498zM85.111 30.035h-0.494v-0.498h0.494v0.498zM85.111 29.066h-0.494v-0.498h0.494v0.498zM85.111 28.097h-0.494v-0.498h0.494v0.498zM85.111 27.1h-0.494v-0.498h0.494v0.498zM85.111 26.131h-0.494v-0.498h0.494v0.498zM85.111 25.163h-0.494v-0.498h0.494v0.498zM85.111 24.194h-0.494v-0.498h0.494v0.498zM85.111 23.197h-0.494v-0.498h0.494v0.498zM85.111 22.228h-0.494v-0.498h0.494v0.498zM85.111 21.259h-0.494v-0.498h0.494v0.498zM85.111 20.263h-0.494v-0.498h0.494v0.498zM85.111 19.294h-0.494v-0.471h0.494v0.471zM85.111 18.325h-0.494v-0.498h0.494v0.498zM85.111 17.356h-0.494v-0.498h0.494v0.498zM85.111 16.36h-0.494v-0.388h0.494v0.388z"></path>
<path d="M83.548 30.395h-0.493v-0.498h0.493v0.498zM83.548 29.398h-0.493v-0.498h0.493v0.498zM83.548 28.429h-0.493v-0.498h0.493v0.498zM83.548 27.46h-0.493v-0.498h0.493v0.498zM83.548 26.491h-0.493v-0.498h0.493v0.498zM83.548 25.495h-0.493v-0.498h0.493v0.498zM83.548 24.526h-0.493v-0.498h0.493v0.498zM83.548 23.557h-0.493v-0.498h0.493v0.498zM83.548 22.561h-0.493v-0.498h0.493v0.498zM83.548 21.592h-0.493v-0.498h0.493v0.498zM83.548 20.623h-0.493v-0.498h0.493v0.498zM83.548 19.654h-0.493v-0.498h0.493v0.498zM83.548 18.657h-0.493v-0.498h0.493v0.498zM83.548 17.689h-0.493v-0.498h0.493v0.498zM83.548 16.72h-0.493v-0.498h0.493v0.498z"></path>
<path d="M81.985 27.488h-0.494v-0.498h0.494v0.498zM81.985 26.519h-0.494v-0.498h0.494v0.498zM81.985 25.522h-0.494v-0.498h0.494v0.498zM81.985 24.554h-0.494v-0.498h0.494v0.498zM81.985 23.585h-0.494v-0.498h0.494v0.498zM81.985 22.588h-0.494v-0.498h0.494v0.498zM81.985 21.619h-0.494v-0.498h0.494v0.498zM81.985 20.651h-0.494v-0.498h0.494v0.498zM81.985 19.682h-0.494v-0.498h0.494v0.498zM81.985 18.685h-0.494v-0.498h0.494v0.498zM81.985 17.716h-0.494v-0.498h0.494v0.498zM81.985 16.747h-0.494v-0.498h0.494v0.498z"></path>
<path d="M80.422 23.114h-0.494v-0.498h0.494v0.498zM80.422 22.118h-0.494v-0.498h0.494v0.498zM80.422 21.149h-0.494v-0.498h0.494v0.498zM80.422 20.18h-0.494v-0.498h0.494v0.498zM80.422 19.183h-0.494v-0.498h0.494v0.498zM80.422 18.215h-0.494v-0.498h0.494v0.498zM80.422 17.246h-0.494v-0.498h0.494v0.498zM80.422 16.277h-0.494v-0.277h0.494v0.277z"></path>
<path d="M78.832 18.076h-0.494v-0.498h0.494v0.498zM78.832 17.080h-0.494v-0.471h0.494v0.471zM78.832 16.111h-0.494v-0.138h0.494v0.138z"></path>
<path d="M77.269 19.709h-0.494v-0.498h0.494v0.498zM77.269 18.741h-0.494v-0.498h0.494v0.498zM77.269 17.744h-0.494v-0.498h0.494v0.498zM77.269 16.775h-0.494v-0.498h0.494v0.498z"></path>
<path d="M75.706 21.73h-0.494v-0.498h0.494v0.498zM75.706 20.761h-0.494v-0.498h0.494v0.498zM75.706 19.792h-0.494v-0.498h0.494v0.498zM75.706 18.796h-0.494v-0.498h0.494v0.498zM75.706 17.827h-0.494v-0.498h0.494v0.498zM75.706 16.858h-0.494v-0.498h0.494v0.498z"></path>
<path d="M74.143 24.249h-0.494v-0.498h0.494v0.498zM74.143 23.28h-0.494v-0.498h0.494v0.498zM74.143 22.311h-0.494v-0.498h0.494v0.498zM74.143 21.315h-0.494v-0.498h0.494v0.498zM74.143 20.346h-0.494v-0.498h0.494v0.498zM74.143 19.377h-0.494v-0.498h0.494v0.498zM74.143 18.381h-0.494v-0.498h0.494v0.498zM74.143 17.412h-0.494v-0.498h0.494v0.498zM74.143 16.443h-0.494v-0.471h0.494v0.471z"></path>
<path d="M72.114 25.772v-0.498h0.494v0.498h-0.494zM72.114 24.803v-0.498h0.494v0.498h-0.494zM72.114 23.834v-0.498h0.494v0.498h-0.494zM72.114 22.865v-0.498h0.494v0.498h-0.494zM72.114 21.869v-0.498h0.494v0.498h-0.494zM72.114 20.9v-0.498h0.494v0.498h-0.494zM72.114 19.931v-0.498h0.494v0.498h-0.494zM72.114 18.962v-0.498h0.494v0.498h-0.494zM72.114 17.965v-0.498h0.494v0.498h-0.494zM72.114 16.997v-0.498h0.494v0.498h-0.494zM72.114 16.028v-0.028h0.494v0.028h-0.494z"></path>
<path d="M71.017 28.844h-0.494v-0.498h0.494v0.498zM71.017 27.875h-0.494v-0.498h0.494v0.498zM71.017 26.907h-0.494v-0.498h0.494v0.498zM71.017 25.91h-0.494v-0.498h0.494v0.498zM71.017 24.941h-0.494v-0.498h0.494v0.498zM71.017 23.972h-0.494v-0.498h0.494v0.498zM71.017 23.003h-0.494v-0.498h0.494v0.498zM71.017 22.007h-0.494v-0.498h0.494v0.498zM71.017 21.038h-0.494v-0.498h0.494v0.498zM71.017 20.069h-0.494v-0.498h0.494v0.498zM71.017 19.1h-0.494v-0.498h0.494v0.498zM71.017 18.104h-0.494v-0.498h0.494v0.498zM71.017 17.135h-0.494v-0.498h0.494v0.498zM71.017 16.166h-0.494v-0.166h0.494v0.166z"></path>
<path d="M69.454 26.325h-0.494v-0.498h0.494v0.498zM69.454 25.357h-0.494v-0.498h0.494v0.498zM69.454 24.387h-0.494v-0.498h0.494v0.498zM69.454 23.391h-0.494v-0.498h0.494v0.498zM69.454 22.422h-0.494v-0.498h0.494v0.498zM69.454 21.453h-0.494v-0.498h0.494v0.498zM69.454 20.484h-0.494v-0.498h0.494v0.498zM69.454 19.488h-0.494v-0.498h0.494v0.498zM69.454 18.519h-0.494v-0.498h0.494v0.498zM69.454 17.55h-0.494v-0.498h0.494v0.498zM69.454 16.581h-0.494v-0.498h0.494v0.498z"></path>
<path d="M67.891 23.861h-0.494v-0.498h0.494v0.498zM67.891 22.893h-0.494v-0.498h0.494v0.498zM67.891 21.924h-0.494v-0.498h0.494v0.498zM67.891 20.927h-0.494v-0.498h0.494v0.498zM67.891 19.958h-0.494v-0.498h0.494v0.498zM67.891 18.99h-0.494v-0.498h0.494v0.498zM67.891 18.021h-0.494v-0.498h0.494v0.498zM67.891 17.024h-0.494v-0.498h0.494v0.498zM67.891 16.055h-0.494v-0.083h0.494v0.083z"></path>
<path d="M66.301 21.453h-0.494v-0.498h0.494v0.498zM66.301 20.484h-0.494v-0.498h0.494v0.498zM66.301 19.516h-0.494v-0.498h0.494v0.498zM66.301 18.519h-0.494v-0.498h0.494v0.498zM66.301 17.55h-0.494v-0.498h0.494v0.498zM66.301 16.581h-0.494v-0.498h0.494v0.498z"></path>
<path d="M64.738 17.356h-0.494v-0.498h0.494v0.498zM64.738 16.388h-0.494v-0.388h0.494v0.388z"></path>
<path d="M63.175 19.875h-0.494v-0.498h0.494v0.498zM63.175 18.907h-0.494v-0.498h0.494v0.498zM63.175 17.91h-0.494v-0.471h0.494v0.471zM63.175 16.941h-0.494v-0.498h0.494v0.498z"></path>
<path d="M61.612 21.896h-0.493v-0.498h0.493v0.498zM61.612 20.927h-0.493v-0.498h0.493v0.498zM61.612 19.959h-0.493v-0.498h0.493v0.498zM61.612 18.99h-0.493v-0.498h0.493v0.498zM61.612 17.993h-0.493v-0.498h0.493v0.498zM61.612 17.024h-0.493v-0.498h0.493v0.498zM61.612 16.055h-0.493v-0.055h0.493v0.055z"></path>
<path d="M60.049 24h-0.494v-0.471h0.494v0.471zM60.049 23.031h-0.494v-0.498h0.494v0.498zM60.049 22.062h-0.494v-0.498h0.494v0.498zM60.049 21.066h-0.494v-0.498h0.494v0.498zM60.049 20.097h-0.494v-0.498h0.494v0.498zM60.049 19.128h-0.494v-0.498h0.494v0.498zM60.049 18.159h-0.494v-0.498h0.494v0.498zM60.049 17.163h-0.494v-0.498h0.494v0.498zM60.049 16.194h-0.494v-0.221h0.494v0.221z"></path>
<path d="M58.459 26.74h-0.494v-0.498h0.494v0.498zM58.459 25.772h-0.494v-0.498h0.494v0.498zM58.459 24.775h-0.494v-0.498h0.494v0.498zM58.459 23.806h-0.494v-0.498h0.494v0.498zM58.459 22.837h-0.494v-0.498h0.494v0.498zM58.459 21.869h-0.494v-0.498h0.494v0.498zM58.459 20.872h-0.494v-0.498h0.494v0.498zM58.459 19.903h-0.494v-0.498h0.494v0.498zM58.459 18.934h-0.494v-0.498h0.494v0.498zM58.459 17.965h-0.494v-0.498h0.494v0.498zM58.459 16.969h-0.494v-0.498h0.494v0.498z"></path>
<path d="M56.896 31.197h-0.494v-0.471h0.494v0.471zM56.896 30.228h-0.494v-0.498h0.494v0.498zM56.896 29.26h-0.494v-0.498h0.494v0.498zM56.896 28.291h-0.494v-0.498h0.494v0.498zM56.896 27.294h-0.494v-0.498h0.494v0.498zM56.896 26.325h-0.494v-0.498h0.494v0.498zM56.896 25.357h-0.494v-0.498h0.494v0.498zM56.896 24.36h-0.494v-0.498h0.494v0.498zM56.896 23.391h-0.494v-0.498h0.494v0.498zM56.896 22.422h-0.494v-0.498h0.494v0.498zM56.896 21.453h-0.494v-0.498h0.494v0.498zM56.896 20.457h-0.494v-0.498h0.494v0.498zM56.896 19.488h-0.494v-0.498h0.494v0.498zM56.896 18.519h-0.494v-0.498h0.494v0.498zM56.896 17.55h-0.494v-0.498h0.494v0.498zM56.896 16.554h-0.494v-0.498h0.494v0.498z"></path>
<path d="M55.333 29.758h-0.494v-0.498h0.494v0.498zM55.333 28.761h-0.494v-0.498h0.494v0.498zM55.333 27.792h-0.494v-0.498h0.494v0.498zM55.333 26.823h-0.494v-0.498h0.494v0.498zM55.333 25.855h-0.494v-0.498h0.494v0.498zM55.333 24.858h-0.494v-0.498h0.494v0.498zM55.333 23.889h-0.494v-0.498h0.494v0.498zM55.333 22.92h-0.494v-0.498h0.494v0.498zM55.333 21.924h-0.494v-0.498h0.494v0.498zM55.333 20.955h-0.494v-0.471h0.494v0.471zM55.333 19.986h-0.494v-0.498h0.494v0.498zM55.333 19.017h-0.494v-0.498h0.494v0.498zM55.333 18.021h-0.494v-0.498h0.494v0.498zM55.333 17.052h-0.494v-0.498h0.494v0.498zM55.333 16.083h-0.494v-0.083h0.494v0.083z"></path>
<path d="M53.77 27.322h-0.494v-0.471h0.494v0.471zM53.77 26.353h-0.494v-0.498h0.494v0.498zM53.77 25.384h-0.494v-0.498h0.494v0.498zM53.77 24.415h-0.494v-0.498h0.494v0.498zM53.77 23.419h-0.494v-0.498h0.494v0.498zM53.77 22.45h-0.494v-0.498h0.494v0.498zM53.77 21.481h-0.494v-0.498h0.494v0.498zM53.77 20.512h-0.494v-0.498h0.494v0.498zM53.77 19.516h-0.494v-0.498h0.494v0.498zM53.77 18.547h-0.494v-0.498h0.494v0.498zM53.77 17.578h-0.494v-0.498h0.494v0.498zM53.77 16.581h-0.494v-0.498h0.494v0.498z"></path>
<path d="M52.207 24.969h-0.494v-0.498h0.494v0.498zM52.207 24h-0.494v-0.498h0.494v0.498zM52.207 23.003h-0.494v-0.498h0.494v0.498zM52.207 22.035h-0.494v-0.498h0.494v0.498zM52.207 21.066h-0.494v-0.498h0.494v0.498zM52.207 20.069h-0.494v-0.498h0.494v0.498zM52.207 19.1h-0.494v-0.498h0.494v0.498zM52.207 18.131h-0.494v-0.498h0.494v0.498zM52.207 17.163h-0.494v-0.498h0.494v0.498zM52.207 16.166h-0.494v-0.194h0.494v0.194z"></path>
<path d="M50.178 19.322v-0.498h0.493v0.498h-0.493zM50.178 18.325v-0.498h0.493v0.498h-0.493zM50.178 17.356v-0.498h0.493v0.498h-0.493zM50.178 16.388v-0.388h0.493v0.388h-0.493z"></path>
<path d="M49.081 17.965h-0.494v-0.498h0.494v0.498zM49.081 16.969h-0.494v-0.498h0.494v0.498z"></path>
<path d="M47.491 26.713h-0.494v-0.498h0.494v0.498zM47.491 25.744h-0.494v-0.498h0.494v0.498zM47.491 24.775h-0.494v-0.498h0.494v0.498zM47.491 23.779h-0.494v-0.498h0.494v0.498zM47.491 22.81h-0.494v-0.498h0.494v0.498zM47.491 21.841h-0.494v-0.498h0.494v0.498zM47.491 20.844h-0.494v-0.498h0.494v0.498zM47.491 19.875h-0.494v-0.498h0.494v0.498zM47.491 18.907h-0.494v-0.498h0.494v0.498zM47.491 17.938h-0.494v-0.498h0.494v0.498zM47.491 16.941h-0.494v-0.498h0.494v0.498z"></path>
<path d="M45.928 23.945h-0.494v-0.498h0.494v0.498zM45.928 22.976h-0.494v-0.498h0.494v0.498zM45.928 21.979h-0.494v-0.498h0.494v0.498zM45.928 21.010h-0.494v-0.498h0.494v0.498zM45.928 20.042h-0.494v-0.498h0.494v0.498zM45.928 19.073h-0.494v-0.498h0.494v0.498zM45.928 18.076h-0.494v-0.498h0.494v0.498zM45.928 17.107h-0.494v-0.498h0.494v0.498zM45.928 16.138h-0.494v-0.138h0.494v0.138z"></path>
<path d="M44.365 18.104h-0.494v-0.498h0.494v0.498zM44.365 17.135h-0.494v-0.498h0.494v0.498zM44.365 16.138h-0.494v-0.166h0.494v0.166z"></path>
<path d="M42.802 19.156h-0.494v-0.498h0.494v0.498zM42.802 18.187h-0.494v-0.498h0.494v0.498zM42.802 17.19h-0.494v-0.498h0.494v0.498zM42.802 16.221h-0.494v-0.249h0.494v0.249z"></path>
<path d="M41.239 25.91h-0.494v-0.498h0.494v0.498zM41.239 24.941h-0.494v-0.498h0.494v0.498zM41.239 23.972h-0.494v-0.498h0.494v0.498zM41.239 23.003h-0.494v-0.498h0.494v0.498zM41.239 22.007h-0.494v-0.498h0.494v0.498zM41.239 21.038h-0.494v-0.498h0.494v0.498zM41.239 20.069h-0.494v-0.498h0.494v0.498zM41.239 19.1h-0.494v-0.498h0.494v0.498zM41.239 18.104h-0.494v-0.498h0.494v0.498zM41.239 17.135h-0.494v-0.498h0.494v0.498zM41.239 16.166h-0.494v-0.166h0.494v0.166z"></path>
<path d="M39.676 24.138h-0.493v-0.498h0.493v0.498zM39.676 23.17h-0.493v-0.498h0.493v0.498zM39.676 22.201h-0.493v-0.498h0.493v0.498zM39.676 21.232h-0.493v-0.498h0.493v0.498zM39.676 20.235h-0.493v-0.498h0.493v0.498zM39.676 19.266h-0.493v-0.498h0.493v0.498zM39.676 18.298h-0.493v-0.498h0.493v0.498zM39.676 17.301h-0.493v-0.498h0.493v0.498zM39.676 16.332h-0.493v-0.36h0.493v0.36z"></path>
<path d="M38.114 22.533h-0.494v-0.498h0.494v0.498zM38.114 21.564h-0.494v-0.498h0.494v0.498zM38.114 20.595h-0.494v-0.498h0.494v0.498zM38.114 19.599h-0.494v-0.498h0.494v0.498zM38.114 18.63h-0.494v-0.498h0.494v0.498zM38.114 17.661h-0.494v-0.498h0.494v0.498zM38.114 16.692h-0.494v-0.498h0.494v0.498z"></path>
<path d="M36.523 30.92h-0.494v-0.471h0.494v0.471zM36.523 29.952h-0.494v-0.498h0.494v0.498zM36.523 28.983h-0.494v-0.498h0.494v0.498zM36.523 28.014h-0.494v-0.498h0.494v0.498zM36.523 27.017h-0.494v-0.498h0.494v0.498zM36.523 26.048h-0.494v-0.498h0.494v0.498zM36.523 25.080h-0.494v-0.498h0.494v0.498zM36.523 24.111h-0.494v-0.498h0.494v0.498zM36.523 23.114h-0.494v-0.498h0.494v0.498zM36.523 22.145h-0.494v-0.498h0.494v0.498zM36.523 21.176h-0.494v-0.498h0.494v0.498zM36.523 20.18h-0.494v-0.498h0.494v0.498zM36.523 19.211h-0.494v-0.498h0.494v0.498zM36.523 18.242h-0.494v-0.498h0.494v0.498zM36.523 17.273h-0.494v-0.498h0.494v0.498zM36.523 16.277h-0.494v-0.305h0.494v0.305z"></path>
<path d="M34.96 28.927h-0.494v-0.498h0.494v0.498zM34.96 27.959h-0.494v-0.498h0.494v0.498zM34.96 26.962h-0.494v-0.498h0.494v0.498zM34.96 25.993h-0.494v-0.498h0.494v0.498zM34.96 25.024h-0.494v-0.498h0.494v0.498zM34.96 24.055h-0.494v-0.498h0.494v0.498zM34.96 23.059h-0.494v-0.498h0.494v0.498zM34.96 22.090h-0.494v-0.498h0.494v0.498zM34.96 21.121h-0.494v-0.498h0.494v0.498zM34.96 20.152h-0.494v-0.498h0.494v0.498zM34.96 19.156h-0.494v-0.498h0.494v0.498zM34.96 18.187h-0.494v-0.498h0.494v0.498zM34.96 17.218h-0.494v-0.498h0.494v0.498zM34.96 16.221h-0.494v-0.249h0.494v0.249z"></path>
<path d="M33.397 26.021h-0.494v-0.498h0.494v0.498zM33.397 25.052h-0.494v-0.498h0.494v0.498zM33.397 24.083h-0.494v-0.498h0.494v0.498zM33.397 23.114h-0.494v-0.498h0.494v0.498zM33.397 22.118h-0.494v-0.498h0.494v0.498zM33.397 21.149h-0.494v-0.498h0.494v0.498zM33.397 20.18h-0.494v-0.498h0.494v0.498zM33.397 19.211h-0.494v-0.498h0.494v0.498zM33.397 18.215h-0.494v-0.498h0.494v0.498zM33.397 17.246h-0.494v-0.498h0.494v0.498zM33.397 16.277h-0.494v-0.277h0.494v0.277z"></path>
<path d="M31.834 24.803h-0.494v-0.498h0.494v0.498zM31.834 23.834h-0.494v-0.498h0.494v0.498zM31.834 22.865h-0.494v-0.498h0.494v0.498zM31.834 21.869h-0.494v-0.498h0.494v0.498zM31.834 20.9h-0.494v-0.498h0.494v0.498zM31.834 19.931h-0.494v-0.498h0.494v0.498zM31.834 18.934h-0.494v-0.498h0.494v0.498zM31.834 17.965h-0.494v-0.498h0.494v0.498zM31.834 16.997h-0.494v-0.498h0.494v0.498zM31.834 16.028h-0.494v-0.028h0.494v0.028z"></path>
<path d="M30.271 23.28h-0.494v-0.498h0.494v0.498zM30.271 22.311h-0.494v-0.498h0.494v0.498zM30.271 21.343h-0.494v-0.498h0.494v0.498zM30.271 20.346h-0.494v-0.498h0.494v0.498zM30.271 19.377h-0.494v-0.498h0.494v0.498zM30.271 18.408h-0.494v-0.498h0.494v0.498zM30.271 17.439h-0.494v-0.498h0.494v0.498zM30.271 16.443h-0.494v-0.471h0.494v0.471z"></path>
<path d="M28.242 19.737v-0.498h0.493v0.498h-0.493zM28.242 18.768v-0.498h0.493v0.498h-0.493zM28.242 17.799v-0.498h0.493v0.498h-0.493zM28.242 16.803v-0.471h0.493v0.471h-0.493z"></path>
<path d="M27.118 17.993h-0.493v-0.498h0.493v0.498zM27.118 17.024h-0.493v-0.498h0.493v0.498zM27.118 16.028h-0.493v-0.055h0.493v0.055z"></path>
<path d="M25.555 21.176h-0.494v-0.498h0.494v0.498zM25.555 20.18h-0.494v-0.498h0.494v0.498zM25.555 19.211h-0.494v-0.498h0.494v0.498zM25.555 18.242h-0.494v-0.498h0.494v0.498zM25.555 17.273h-0.494v-0.498h0.494v0.498zM25.555 16.277h-0.494v-0.305h0.494v0.305z"></path>
<path d="M23.992 25.439h-0.494v-0.498h0.494v0.498zM23.992 24.471h-0.494v-0.498h0.494v0.498zM23.992 23.474h-0.494v-0.498h0.494v0.498zM23.992 22.505h-0.494v-0.498h0.494v0.498zM23.992 21.536h-0.494v-0.498h0.494v0.498zM23.992 20.567h-0.494v-0.498h0.494v0.498zM23.992 19.571h-0.494v-0.471h0.494v0.471zM23.992 18.602h-0.494v-0.498h0.494v0.498zM23.992 17.633h-0.494v-0.498h0.494v0.498zM23.992 16.664h-0.494v-0.498h0.494v0.498z"></path>
<path d="M22.429 21.896h-0.494v-0.498h0.494v0.498zM22.429 20.927h-0.494v-0.498h0.494v0.498zM22.429 19.958h-0.494v-0.498h0.494v0.498zM22.429 18.962h-0.494v-0.498h0.494v0.498zM22.429 17.993h-0.494v-0.498h0.494v0.498zM22.429 17.024h-0.494v-0.498h0.494v0.498zM22.429 16.028h-0.494v-0.055h0.494v0.055z"></path>
<path d="M20.866 23.28h-0.494v-0.498h0.494v0.498zM20.866 22.311h-0.494v-0.498h0.494v0.498zM20.866 21.343h-0.494v-0.498h0.494v0.498zM20.866 20.346h-0.494v-0.498h0.494v0.498zM20.866 19.377h-0.494v-0.498h0.494v0.498zM20.866 18.408h-0.494v-0.498h0.494v0.498zM20.866 17.439h-0.494v-0.498h0.494v0.498zM20.866 16.443h-0.494v-0.471h0.494v0.471z"></path>
<path d="M19.303 19.931h-0.494v-0.498h0.494v0.498zM19.303 18.962h-0.494v-0.498h0.494v0.498zM19.303 17.965h-0.494v-0.498h0.494v0.498zM19.303 16.997h-0.494v-0.498h0.494v0.498z"></path>
<path d="M17.741 28.041h-0.494v-0.498h0.494v0.498zM17.741 27.045h-0.494v-0.471h0.494v0.471zM17.741 26.076h-0.494v-0.498h0.494v0.498zM17.741 25.107h-0.494v-0.498h0.494v0.498zM17.741 24.138h-0.494v-0.498h0.494v0.498zM17.741 23.142h-0.494v-0.498h0.494v0.498zM17.741 22.173h-0.494v-0.498h0.494v0.498zM17.741 21.204h-0.494v-0.498h0.494v0.498zM17.741 20.208h-0.494v-0.498h0.494v0.498zM17.741 19.239h-0.494v-0.498h0.494v0.498zM17.741 18.27h-0.494v-0.498h0.494v0.498zM17.741 17.301h-0.494v-0.498h0.494v0.498zM17.741 16.305h-0.494v-0.332h0.494v0.332z"></path>
<path d="M16.15 25.661h-0.494v-0.498h0.494v0.498zM16.15 24.692h-0.494v-0.498h0.494v0.498zM16.15 23.696h-0.494v-0.498h0.494v0.498zM16.15 22.727h-0.494v-0.498h0.494v0.498zM16.15 21.758h-0.494v-0.498h0.494v0.498zM16.15 20.789h-0.494v-0.498h0.494v0.498zM16.15 19.792h-0.494v-0.498h0.494v0.498zM16.15 18.824h-0.494v-0.498h0.494v0.498zM16.15 17.855h-0.494v-0.498h0.494v0.498zM16.15 16.858h-0.494v-0.498h0.494v0.498z"></path>
<path d="M14.587 24.415h-0.494v-0.498h0.494v0.498zM14.587 23.446h-0.494v-0.498h0.494v0.498zM14.587 22.45h-0.494v-0.498h0.494v0.498zM14.587 21.481h-0.494v-0.498h0.494v0.498zM14.587 20.512h-0.494v-0.498h0.494v0.498zM14.587 19.543h-0.494v-0.498h0.494v0.498zM14.587 18.547h-0.494v-0.498h0.494v0.498zM14.587 17.578h-0.494v-0.498h0.494v0.498zM14.587 16.609h-0.494v-0.498h0.494v0.498z"></path>
<path d="M13.024 28.457h-0.494v-0.498h0.494v0.498zM13.024 27.488h-0.494v-0.498h0.494v0.498zM13.024 26.519h-0.494v-0.498h0.494v0.498zM13.024 25.55h-0.494v-0.498h0.494v0.498zM13.024 24.554h-0.494v-0.471h0.494v0.471zM13.024 23.585h-0.494v-0.498h0.494v0.498zM13.024 22.616h-0.494v-0.498h0.494v0.498zM13.024 21.647h-0.494v-0.498h0.494v0.498zM13.024 20.651h-0.494v-0.498h0.494v0.498zM13.024 19.682h-0.494v-0.498h0.494v0.498zM13.024 18.713h-0.494v-0.498h0.494v0.498zM13.024 17.716h-0.494v-0.498h0.494v0.498zM13.024 16.747h-0.494v-0.498h0.494v0.498z"></path>
<path d="M11.461 26.713h-0.494v-0.498h0.494v0.498zM11.461 25.744h-0.494v-0.498h0.494v0.498zM11.461 24.775h-0.494v-0.498h0.494v0.498zM11.461 23.779h-0.494v-0.498h0.494v0.498zM11.461 22.81h-0.494v-0.498h0.494v0.498zM11.461 21.841h-0.494v-0.498h0.494v0.498zM11.461 20.844h-0.494v-0.498h0.494v0.498zM11.461 19.875h-0.494v-0.498h0.494v0.498zM11.461 18.907h-0.494v-0.498h0.494v0.498zM11.461 17.938h-0.494v-0.498h0.494v0.498zM11.461 16.941h-0.494v-0.498h0.494v0.498z"></path>
<path d="M9.899 18.104h-0.494v-0.498h0.494v0.498zM9.899 17.135h-0.494v-0.498h0.494v0.498zM9.899 16.138h-0.494v-0.166h0.494v0.166z"></path>
<path d="M8.308 18.104h-0.494v-0.498h0.494v0.498zM8.308 17.135h-0.494v-0.498h0.494v0.498zM8.308 16.138h-0.494v-0.166h0.494v0.166z"></path>
<path d="M6.745 19.871h-0.494v-0.498h0.494v0.498zM6.745 18.902h-0.494v-0.498h0.494v0.498zM6.745 17.933h-0.494v-0.498h0.494v0.498zM6.745 16.937h-0.494v-0.498h0.494v0.498z"></path>
<path d="M5.182 22.671h-0.494v-0.498h0.494v0.498zM5.182 21.675h-0.494v-0.498h0.494v0.498zM5.182 20.706h-0.494v-0.498h0.494v0.498zM5.182 19.737h-0.494v-0.498h0.494v0.498zM5.182 18.768h-0.494v-0.498h0.494v0.498zM5.182 17.772h-0.494v-0.498h0.494v0.498zM5.182 16.803h-0.494v-0.498h0.494v0.498z"></path>
<path d="M3.619 20.374h-0.494v-0.498h0.494v0.498zM3.619 19.405h-0.494v-0.498h0.494v0.498zM3.619 18.408h-0.494v-0.498h0.494v0.498zM3.619 17.439h-0.494v-0.498h0.494v0.498zM3.619 16.471h-0.494v-0.471h0.494v0.471z"></path>
<path d="M2.056 19.128h-0.494v-0.498h0.494v0.498zM2.056 18.159h-0.494v-0.498h0.494v0.498zM2.056 17.19h-0.494v-0.498h0.494v0.498zM2.056 16.221h-0.494v-0.221h0.494v0.221z"></path>
<path d="M0.494 17.91h-0.494v-0.498h0.494v0.498zM0.494 16.941h-0.494v-0.498h0.494v0.498z"></path>
</symbol>
<symbol id="icon-header_home-icon" viewBox="0 0 371 32">
<path fill="#1a7f72" style="fill: var(--color2, #1a7f72)" d="M0 32c0-17.673 14.327-32 32-32h307.2c17.674 0 32 14.327 32 32h-371.2z"></path>
</symbol>
<symbol id="icon-ic_facebook" viewBox="0 0 32 32" fill="currentColor">
<path d="M16 0c-8.837 0-16 7.163-16 16s7.163 16 16 16c8.837 0 16-7.163 16-16s-7.163-16-16-16zM22.104 8.148l-2.213 0.001c-1.735 0-2.071 0.825-2.071 2.035v2.668h4.138l-0.002 4.179h-4.136v10.724h-4.316v-10.724h-3.608v-4.179h3.608v-3.082c0-3.576 2.185-5.524 5.375-5.524l3.225 0.005v3.898h-0z"></path>
</symbol>
<symbol id="icon-ic_instagram"  viewBox="0 0 32 32" fill="currentColor">
<path d="M19.063 16c0 1.691-1.371 3.063-3.063 3.063s-3.063-1.371-3.063-3.063c0-1.691 1.371-3.063 3.063-3.063s3.063 1.371 3.063 3.063z"></path>
<path d="M23.162 10.581c-0.147-0.399-0.382-0.76-0.687-1.056-0.296-0.305-0.657-0.54-1.056-0.687-0.324-0.126-0.81-0.275-1.706-0.316-0.969-0.044-1.26-0.054-3.713-0.054s-2.744 0.009-3.713 0.053c-0.896 0.041-1.382 0.191-1.706 0.316-0.399 0.147-0.76 0.382-1.056 0.687-0.305 0.296-0.54 0.657-0.688 1.056-0.126 0.324-0.275 0.81-0.316 1.706-0.044 0.969-0.054 1.259-0.054 3.713s0.010 2.744 0.054 3.713c0.041 0.896 0.19 1.382 0.316 1.706 0.148 0.399 0.382 0.76 0.687 1.056 0.296 0.305 0.657 0.54 1.056 0.687 0.324 0.126 0.81 0.276 1.706 0.316 0.969 0.044 1.259 0.053 3.712 0.053s2.744-0.009 3.713-0.053c0.896-0.041 1.382-0.19 1.706-0.316 0.801-0.309 1.435-0.942 1.744-1.744 0.126-0.324 0.275-0.81 0.316-1.706 0.044-0.969 0.053-1.26 0.053-3.713s-0.009-2.744-0.053-3.713c-0.041-0.896-0.19-1.382-0.316-1.706zM16 20.718c-2.606 0-4.718-2.112-4.718-4.718s2.112-4.718 4.718-4.718c2.605 0 4.718 2.112 4.718 4.718s-2.112 4.718-4.718 4.718zM20.904 12.198c-0.609 0-1.103-0.494-1.103-1.103s0.494-1.103 1.103-1.103 1.103 0.494 1.103 1.103c-0 0.609-0.494 1.103-1.103 1.103z"></path>
<path d="M16 0c-8.835 0-16 7.165-16 16s7.165 16 16 16c8.835 0 16-7.165 16-16s-7.165-16-16-16zM25.132 19.788c-0.044 0.978-0.2 1.646-0.427 2.23-0.477 1.234-1.453 2.21-2.687 2.687-0.584 0.227-1.252 0.382-2.23 0.427-0.98 0.045-1.293 0.055-3.788 0.055s-2.808-0.011-3.788-0.055c-0.978-0.045-1.646-0.2-2.23-0.427-0.613-0.231-1.168-0.592-1.627-1.060-0.467-0.459-0.829-1.014-1.060-1.627-0.227-0.584-0.383-1.252-0.427-2.23-0.045-0.98-0.056-1.293-0.056-3.788s0.010-2.808 0.055-3.788c0.044-0.978 0.2-1.646 0.427-2.23 0.231-0.613 0.593-1.168 1.060-1.627 0.459-0.468 1.014-0.829 1.627-1.060 0.585-0.227 1.252-0.382 2.23-0.427 0.98-0.045 1.293-0.055 3.788-0.055s2.808 0.011 3.788 0.056c0.978 0.044 1.646 0.2 2.23 0.426 0.613 0.231 1.168 0.593 1.627 1.060 0.467 0.459 0.829 1.014 1.060 1.627 0.227 0.585 0.383 1.252 0.427 2.23 0.045 0.98 0.055 1.293 0.055 3.788s-0.010 2.808-0.055 3.788z"></path>
</symbol>
<symbol id="icon-ic_sound" viewBox="0 0 32 32">
<path fill="#cae0dd" style="fill: var(--color3, #cae0dd)" d="M14.625 19.375l-9 2.565v-3.514l9-2.565v3.514z"></path>
<path fill="#cae0dd" style="fill: var(--color3, #cae0dd)" d="M3.125 31.375c1.381 0 2.5-1.119 2.5-2.5s-1.119-2.5-2.5-2.5-2.5 1.119-2.5 2.5c0 1.381 1.119 2.5 2.5 2.5z"></path>
<path fill="#cae0dd" style="fill: var(--color3, #cae0dd)" d="M12.125 28.81c1.381 0 2.5-1.119 2.5-2.5s-1.119-2.5-2.5-2.5c-1.381 0-2.5 1.119-2.5 2.5s1.119 2.5 2.5 2.5z"></path>
<path fill="#cae0dd" style="fill: var(--color3, #cae0dd)" d="M24.849 6.019l6.526-1.881v-3.514l-6.526 1.881v3.514z"></path>
<path fill="#cae0dd" style="fill: var(--color3, #cae0dd)" d="M22.349 15.454c1.381 0 2.5-1.119 2.5-2.5s-1.119-2.5-2.5-2.5c-1.381 0-2.5 1.119-2.5 2.5s1.119 2.5 2.5 2.5z"></path>
<path fill="#7adbae" style="fill: var(--color4, #7adbae)" d="M24.546 26.532l-2.99 1.572 0.571-3.33-2.419-2.358 3.343-0.486 1.495-3.029 1.495 3.029 3.343 0.486-2.419 2.358 0.571 3.33-2.99-1.572z"></path>
<path fill="#7adbae" style="fill: var(--color4, #7adbae)" d="M4.698 6.895l-2.457 1.292 0.469-2.736-1.988-1.938 2.747-0.399 1.228-2.489 1.228 2.489 2.747 0.399-1.988 1.938 0.469 2.736-2.457-1.292z"></path>
<path fill="#000" style="fill: var(--color5, #000)" d="M14.625 15.236c-0.059 0-0.117 0.009-0.171 0.024l-0-0-1.795 0.512c-0.332 0.095-0.524 0.44-0.43 0.772 0.078 0.275 0.329 0.454 0.601 0.454 0.057 0 0.114-0.008 0.172-0.024l0.999-0.285v2.214l-7.75 2.209v-2.214l1.341-0.382c0.332-0.095 0.524-0.44 0.43-0.772s-0.44-0.524-0.772-0.43l-1.795 0.512c-0.262 0.075-0.454 0.315-0.454 0.601v7.95c-0.523-0.393-1.172-0.627-1.875-0.627-1.723 0-3.125 1.402-3.125 3.125s1.402 3.125 3.125 3.125 3.125-1.402 3.125-3.125v-6.463l7.75-2.209v3.608c-0.523-0.393-1.172-0.627-1.875-0.627-1.723 0-3.125 1.402-3.125 3.125s1.402 3.125 3.125 3.125c1.723 0 3.125-1.402 3.125-3.125v-10.448c0-0.345-0.28-0.625-0.625-0.625zM3.125 30.75c-1.034 0-1.875-0.841-1.875-1.875s0.841-1.875 1.875-1.875 1.875 0.841 1.875 1.875c0 1.034-0.841 1.875-1.875 1.875zM12.125 28.185c-1.034 0-1.875-0.841-1.875-1.875s0.841-1.875 1.875-1.875c1.034 0 1.875 0.841 1.875 1.875s-0.841 1.875-1.875 1.875z"></path>
<path fill="#000" style="fill: var(--color5, #000)" d="M31.751 0.126c-0.157-0.118-0.36-0.155-0.549-0.101l-6.526 1.881c-0.268 0.077-0.452 0.322-0.452 0.601v7.95c-0.523-0.393-1.172-0.627-1.875-0.627-1.723 0-3.125 1.402-3.125 3.125s1.402 3.125 3.125 3.125c1.723 0 3.125-1.402 3.125-3.125v-6.464l6.074-1.75c0.268-0.077 0.452-0.322 0.452-0.601v-3.514c0-0.196-0.092-0.381-0.249-0.499zM22.349 14.829c-1.034 0-1.875-0.841-1.875-1.875s0.841-1.875 1.875-1.875c1.034 0 1.875 0.841 1.875 1.875s-0.841 1.875-1.875 1.875zM30.75 3.668l-5.276 1.52v-2.213l5.276-1.52v2.213z"></path>
<path fill="#000" style="fill: var(--color5, #000)" d="M29.474 21.798l-3.018-0.439-1.35-2.735c-0.105-0.213-0.323-0.348-0.56-0.348s-0.455 0.135-0.56 0.348l-1.35 2.735-3.018 0.439c-0.235 0.034-0.431 0.199-0.505 0.425s-0.012 0.475 0.158 0.641l2.184 2.129-0.516 3.006c-0.040 0.234 0.056 0.471 0.249 0.611s0.448 0.158 0.658 0.048l2.699-1.419 2.699 1.419c0.091 0.048 0.191 0.072 0.291 0.072 0.13 0 0.259-0.040 0.367-0.119 0.193-0.14 0.289-0.377 0.249-0.611l-0.516-3.006 2.184-2.129c0.17-0.166 0.232-0.414 0.158-0.641s-0.269-0.391-0.504-0.425zM26.529 24.327c-0.147 0.144-0.215 0.35-0.18 0.553l0.357 2.082-1.869-0.983c-0.182-0.096-0.4-0.096-0.582 0l-1.869 0.983 0.357-2.082c0.035-0.203-0.032-0.41-0.18-0.553l-1.512-1.474 2.090-0.304c0.204-0.030 0.38-0.157 0.471-0.342l0.935-1.894 0.935 1.894c0.091 0.184 0.267 0.312 0.471 0.342l2.090 0.304-1.512 1.474z"></path>
<path fill="#000" style="fill: var(--color5, #000)" d="M2.039 5.669l-0.414 2.412c-0.040 0.234 0.056 0.471 0.249 0.611s0.448 0.158 0.658 0.048l2.166-1.139 2.166 1.139c0.091 0.048 0.191 0.072 0.291 0.072 0.13 0 0.259-0.040 0.367-0.119 0.192-0.14 0.289-0.377 0.249-0.611l-0.414-2.412 1.753-1.708c0.17-0.166 0.232-0.414 0.158-0.641s-0.269-0.391-0.505-0.425l-2.422-0.352-1.083-2.195c-0.105-0.213-0.322-0.348-0.56-0.348s-0.455 0.135-0.56 0.348l-1.083 2.195-2.422 0.352c-0.235 0.034-0.431 0.199-0.505 0.425s-0.012 0.475 0.158 0.641l1.752 1.708zM3.559 3.733c0.204-0.030 0.38-0.157 0.471-0.342l0.668-1.354 0.668 1.354c0.091 0.184 0.267 0.312 0.471 0.342l1.494 0.217-1.081 1.054c-0.147 0.144-0.215 0.351-0.18 0.553l0.255 1.488-1.336-0.702c-0.091-0.048-0.191-0.072-0.291-0.072s-0.2 0.024-0.291 0.072l-1.336 0.702 0.255-1.488c0.035-0.203-0.032-0.41-0.18-0.553l-1.081-1.054 1.494-0.217z"></path>
<path fill="#000" style="fill: var(--color5, #000)" d="M14.625 5.394c-0.345 0-0.625 0.28-0.625 0.625v0.625c0 0.345 0.28 0.625 0.625 0.625s0.625-0.28 0.625-0.625v-0.625c0-0.345-0.28-0.625-0.625-0.625z"></path>
<path fill="#000" style="fill: var(--color5, #000)" d="M14.625 9.769c-0.345 0-0.625 0.28-0.625 0.625v0.625c0 0.345 0.28 0.625 0.625 0.625s0.625-0.28 0.625-0.625v-0.625c0-0.345-0.28-0.625-0.625-0.625z"></path>
<path fill="#000" style="fill: var(--color5, #000)" d="M17.125 7.894h-0.625c-0.345 0-0.625 0.28-0.625 0.625s0.28 0.625 0.625 0.625h0.625c0.345 0 0.625-0.28 0.625-0.625s-0.28-0.625-0.625-0.625z"></path>
<path fill="#000" style="fill: var(--color5, #000)" d="M12.125 9.144h0.625c0.345 0 0.625-0.28 0.625-0.625s-0.28-0.625-0.625-0.625h-0.625c-0.345 0-0.625 0.28-0.625 0.625s0.28 0.625 0.625 0.625z"></path>
<path fill="#000" style="fill: var(--color5, #000)" d="M10.125 17.769c0.164 0 0.326-0.067 0.442-0.183s0.183-0.277 0.183-0.442c0-0.165-0.067-0.326-0.183-0.442s-0.277-0.183-0.442-0.183-0.326 0.066-0.442 0.183c-0.116 0.117-0.183 0.277-0.183 0.442s0.067 0.326 0.183 0.442c0.116 0.116 0.277 0.183 0.442 0.183z"></path>
</symbol>
<symbol id="icon-ic_twitter" viewBox="0 0 32 32" fill="currentColor">
<path d="M16 0c-8.835 0-16 7.165-16 16s7.165 16 16 16c8.835 0 16-7.165 16-16s-7.165-16-16-16zM23.305 12.475c0.007 0.157 0.010 0.316 0.010 0.475 0 4.853-3.694 10.449-10.449 10.449v0c-2.074 0-4.004-0.608-5.629-1.65 0.287 0.034 0.58 0.051 0.876 0.051 1.721 0 3.304-0.587 4.561-1.572-1.608-0.030-2.963-1.092-3.431-2.551 0.224 0.043 0.454 0.066 0.69 0.066 0.335 0 0.66-0.045 0.969-0.129-1.68-0.336-2.946-1.822-2.946-3.6 0-0.017 0-0.031 0-0.047 0.495 0.275 1.061 0.441 1.663 0.459-0.986-0.658-1.634-1.783-1.634-3.057 0-0.673 0.182-1.303 0.497-1.846 1.811 2.222 4.518 3.684 7.57 3.837-0.063-0.269-0.095-0.549-0.095-0.837 0-2.027 1.645-3.672 3.673-3.672 1.056 0 2.011 0.447 2.681 1.16 0.837-0.165 1.622-0.471 2.332-0.891-0.275 0.857-0.857 1.576-1.615 2.031 0.743-0.089 1.451-0.286 2.109-0.578-0.491 0.737-1.115 1.383-1.832 1.902z"></path>
</symbol>
<symbol id="icon-ic_yoga" viewBox="0 0 32 32">
<path fill="#f9cfac" style="fill: var(--color6, #f9cfac)" d="M17.409 4.241c0 1.16-0.378 1.884-0.709 2.635-0.558 1.266-2.534 1.266-3.092 0l-0.29-0.659c-0.301-0.684-0.535-1.748-0.363-2.433 0.226-0.903 1.116-1.593 2.198-1.593 1.226 0 2.255 0.902 2.255 2.050z"></path>
<path fill="#ffe4cc" style="fill: var(--color7, #ffe4cc)" d="M17.353 3.782c-0.113 0.752-0.352 1.222-0.652 1.903-0.557 1.266-2.535 1.267-3.092 0-0.307-0.698-0.537-1.144-0.652-1.901 0.388-1.551 2.531-2.142 3.792-0.992 0.294 0.268 0.508 0.609 0.604 0.991z"></path>
<path fill="#6d6d6d" style="fill: var(--color8, #6d6d6d)" d="M17.409 4.241c0 0.271-0.023 0.541-0.069 0.809-0.101-0.364-0.309-0.689-0.592-0.946-1.245-1.134-3.359-0.576-3.78 0.946-0.159-0.933-0.074-1.743 0.692-2.344 1.439-1.161 3.749-0.242 3.749 1.535z"></path>
<path fill="#6d6d6d" style="fill: var(--color8, #6d6d6d)" d="M14.027 2.493v-0.865c0-0.623 0.504-1.127 1.127-1.127s1.127 0.504 1.127 1.127v0.865z"></path>
<path fill="#b3cec9" style="fill: var(--color9, #b3cec9)" d="M18.951 8.625l-0.404-0.506c-0.194-0.194-0.449-0.291-0.704-0.291h-5.374c-0.255 0-0.51 0.097-0.704 0.291-0.019 0.023-0.395 0.495-0.419 0.525 0.586 3.161 0.992 2.046 0.992 7.074h5.636c0-2.611 0.066-3.491 0.385-4.636 0.064-0.233 0.664-2.372 0.593-2.457z"></path>
<path fill="#cae0dd" style="fill: var(--color3, #cae0dd)" d="M18.238 8.475l-0.328-0.411c-0.158-0.158-0.365-0.237-0.572-0.237h-4.365c-0.207 0-0.414 0.079-0.572 0.237-0.015 0.019-0.321 0.402-0.341 0.426 0.387 2.089 0.734 1.954 0.792 4.384 0.029 1.209 1.016 2.174 2.225 2.174 1.522 0 2.351-1.064 2.381-2.186 0.025-0.953 0.065-1.557 0.298-2.392 0.053-0.194 0.539-1.927 0.482-1.996z"></path>
<path fill="#5fc68f" style="fill: var(--color10, #5fc68f)" d="M22.819 19.11l-4.846-3.392h-5.636c-0.669 4.134-0.080 6.84 0.52 11.281l2.298-0.009v-7.891l3.946 1.128v2.254h2.656c1.819 0 2.528-2.343 1.063-3.372z"></path>
<path fill="#7adbae" style="fill: var(--color4, #7adbae)" d="M22.819 19.11l-4.846-3.392h-5.636c-0.563 3.478-0.208 4.897 0.376 9.22 0.135 1.004 1.369 1.419 2.084 0.701 0.221-0.222 0.357-0.528 0.357-0.866v-5.952c0-0.359 0.344-0.619 0.689-0.52l3.256 0.931c0 0.011-0.108-0.046 1.4 0.688h-1.4c0 0.865 0.701 1.567 1.567 1.567h1.089c0.851 0 1.568-0.573 1.786-1.355-0.116-0.423-0.38-0.781-0.722-1.022z"></path>
<path fill="#f9cfac" style="fill: var(--color6, #f9cfac)" d="M15.154 26.991v4.009c0 0.276-0.224 0.5-0.5 0.5h-3.366c-0.384 0-0.631-0.419-0.434-0.748 0.123-0.245 0.468-0.549 0.884-0.653l1.485-0.371c-0.089-0.665-0.016-0.119-0.368-2.729 0.105-0-0.201 0.001 2.298-0.009z"></path>
<path fill="#ffe4cc" style="fill: var(--color7, #ffe4cc)" d="M15.154 26.991v3.509c0 0.276-0.224 0.5-0.5 0.5h-3.366c-0.191 0-0.348-0.104-0.434-0.248 0.123-0.245 0.468-0.549 0.884-0.653l1.485-0.371-0.065-0.484 0.065-0.016-0.301-2.229 2.231-0.009z"></path>
<path fill="#f9cfac" style="fill: var(--color6, #f9cfac)" d="M19.1 20.228v2.254h-2.254c-0.29 1.157-0.31 1.564-0.802 1.949-0.248 0.193-0.558 0.306-0.889 0.306v-3.509c0-0.552 0.448-1 1-1h2.946z"></path>
<path fill="#ffe4cc" style="fill: var(--color7, #ffe4cc)" d="M19.1 20.228v1.587h-2.254c-0.29 1.157-0.31 1.564-0.803 1.949-0.248 0.193-0.557 0.306-0.889 0.306v-2.842c0-0.552 0.448-1 1-1h2.946z"></path>
<path fill="#f9cfac" style="fill: var(--color6, #f9cfac)" d="M15.154 10.318v3.146c0 0.312-0.253 0.564-0.564 0.564h-4.947c-0.777 0-1.362-0.704-1.236-1.456 0.073-0.449-0.036-0.207 3.356-4.453 0.44-0.44 1.146-0.343 1.45 0.045 0.347 0.392 0.333 0.99-0.041 1.364-1.404 1.789-1.572 2.003-2.205 2.808h2.497l0.207-1.185c0.313-0.944 1.23-1.044 1.236-1.050 0.131-0.021 0.248 0.084 0.248 0.217z"></path>
<path fill="#f9cfac" style="fill: var(--color6, #f9cfac)" d="M20.666 14.027h-4.948c-0.311 0-0.564-0.253-0.564-0.564v-3.146c0-0.132 0.117-0.238 0.248-0.217 0.006 0.006 0.923 0.107 1.236 1.050l0.208 1.185h2.497c-0.524-0.667-0.242-0.307-2.206-2.808-0.625-0.625-0.181-1.701 0.705-1.701 0.255 0 0.51 0.097 0.704 0.291 0.357 0.447 3.079 3.851 3.098 3.874 0.65 0.812 0.073 2.034-0.978 2.034z"></path>
<path fill="#ffe4cc" style="fill: var(--color7, #ffe4cc)" d="M14.904 12.491c0 0.312-0.253 0.564-0.564 0.564h-4.947c-0.408 0-0.773-0.2-0.986-0.482 0.073-0.45-0.036-0.207 3.356-4.453 0.388-0.388 1.020-0.389 1.409 0 0.013 0.013-0.067 0.254-0.25 0.436-1.453 1.851-1.078 1.373-1.778 2.264-0.265 0.337-0.332 0.79-0.177 1.19h0.257l-0.257 0.328h2.497l0.207-1.185c0.175-0.528 0.614-0.911 1.135-1.030 0.133 0.158 0.099 0.054 0.099 2.369z"></path>
<path fill="#ffe4cc" style="fill: var(--color7, #ffe4cc)" d="M21.913 12.656c-0.175 0.212-0.533 0.399-0.914 0.399h-4.948c-0.311 0-0.564-0.253-0.564-0.564 0-2.293-0.030-2.2 0.085-2.353 0.49 0.136 0.898 0.506 1.067 1.013l0.208 1.185h2.497l-0.257-0.328h0.339c0.055-0.142 0.082-0.291 0.082-0.439 0-0.53-0.272-0.767-0.817-1.461-1.47-1.872-1.433-1.783-1.489-2.048 0.388-0.328 0.976-0.313 1.346 0.057 2.373 2.971 0.307 0.385 3.098 3.874 0.152 0.191 0.245 0.421 0.268 0.662z"></path>
<path fill="#797a7a" style="fill: var(--color11, #797a7a)" d="M16.715 2.761c-0.848 0.341-2.302 0.312-3.054-0.056 0.883-0.712 2.215-0.678 3.054 0.056z"></path>
<path fill="#000" style="fill: var(--color5, #000)" d="M0.501 32h31c0.276 0 0.5-0.224 0.5-0.5s-0.224-0.5-0.5-0.5h-15.845v-5.829c0.671-0.178 1.211-0.707 1.386-1.407l0.196-0.782h4.52c2.298 0 3.224-2.969 1.349-4.281l-4.633-3.243c0.001-0.345 0.003-0.653 0.008-0.93h2.186c1.464 0 2.283-1.704 1.369-2.847-3.343-4.18-3.106-3.887-3.135-3.916-0.527-0.527-1.074-0.438-1.875-0.438 0.099-0.159 0.107-0.191 0.424-0.909 0.3-0.683 0.461-1.423 0.461-2.178 0-0.849-0.441-1.592-1.127-2.058 0-0.656 0.056-1.172-0.477-1.707-1.024-1.021-2.778-0.288-2.778 1.152v0.555c-0.686 0.466-1.127 1.209-1.127 2.058 0 0.749 0.155 1.481 0.461 2.178 0.309 0.701 0.32 0.744 0.424 0.909-0.767 0-1.344-0.093-1.875 0.438-0.036 0.036-0.28 0.348-0.481 0.597-0.413 0.511 0.35 1.167 0.806 0.594 0.394-0.494 0.421-0.579 0.641-0.62 0.070-0.013-0.274-0.008 5.467-0.008 0.315 0 0.378 0.198 0.726 0.62 0.073 0.095-0.299-0.374 2.686 3.358 0.392 0.49 0.040 1.222-0.588 1.222h-4.948c-0.092 0-0.064 0.118-0.064-2.821 0.224 0.12 0.405 0.316 0.498 0.571l0.201 1.145c0.042 0.239 0.25 0.414 0.492 0.414h2.497c0.416 0 0.651-0.481 0.393-0.809l-1.442-1.836c-0.171-0.217-0.485-0.255-0.702-0.084s-0.255 0.485-0.084 0.702l0.303 0.386c-0.055 0.211-0.102 0.417-0.142 0.642h-0.402l-0.135-0.771c-0.049-0.28-0.328-0.777-0.769-1.093-0.712-0.515-1.687-0.525-2.414-0.001-0.424 0.305-0.718 0.797-0.77 1.094l-0.135 0.771h-0.403c-0.040-0.224-0.087-0.431-0.141-0.642l0.303-0.386c0.171-0.217 0.133-0.532-0.085-0.702s-0.531-0.133-0.702 0.085l-1.442 1.836c-0.257 0.327-0.024 0.809 0.393 0.809h2.497c0.243 0 0.451-0.175 0.493-0.414l0.2-1.145c0.092-0.251 0.272-0.45 0.498-0.571v2.757c0 0.098 0.265 0.064-5.011 0.064-0.623 0-0.983-0.728-0.587-1.223l0.096-0.121c0.172-0.216 0.137-0.53-0.079-0.703s-0.531-0.137-0.703 0.079l-0.096 0.12c-0.925 1.156-0.083 2.847 1.369 2.847h2.185c0.005 0.339 0.008 0.721 0.008 1.154-0.684 4.282-0.091 6.829 0.833 13.67l-1.051 0.263c-0.7 0.175-1.229 0.714-1.407 1.386h-9.711c-0.276 0-0.5 0.224-0.5 0.5s0.224 0.5 0.5 0.5zM14.528 1.627c0-0.559 0.679-0.835 1.071-0.445 0.194 0.195 0.184 0.395 0.184 0.575-0.4-0.086-0.826-0.092-1.255 0v-0.13zM13.898 3.161c0.301-0.273 0.31-0.147 0.477-0.309 0.489-0.215 1.072-0.215 1.561 0 0.159 0.153 0.186 0.043 0.477 0.309 0.582 0.529 0.568 1.201 0.402 1.982-0.117 0.549-0.268 0.844-0.572 1.532-0.382 0.868-1.795 0.868-2.176-0-0.358-0.813-0.666-1.41-0.666-2.433 0-0.405 0.176-0.788 0.496-1.079zM16.847 21.981c-0.229 0-0.429 0.156-0.485 0.379l-0.29 1.161c-0.061 0.244-0.214 0.446-0.416 0.572v-3.366h2.945v1.255h-1.755zM15.155 14.364c0.346 0.217 0.465 0.163 2.326 0.163-0.005 0.348-0.008 0.741-0.008 1.191 0 0.128 0.051 0.255 0.141 0.348 0.051 0.052-0.266-0.175 4.918 3.454 1.080 0.756 0.543 2.462-0.776 2.462h-2.156v-1.255h0.627c0.276 0 0.5-0.224 0.5-0.5s-0.224-0.5-0.5-0.5h-1.057l-3.878-1.108c-0.319-0.091-0.637 0.148-0.637 0.481v7.391h-1.363c-0.58-4.294-1.053-6.574-0.526-10.273h2.388c0.276 0 0.5-0.224 0.5-0.5s-0.224-0.5-0.5-0.5h-2.319c-0.001-0.248-0.003-0.477-0.007-0.691 1.881 0 1.985 0.051 2.326-0.163zM11.861 30.584l1.485-0.371c0.247-0.062 0.408-0.3 0.374-0.552l-0.293-2.17h1.228v3.509h-3.366c0.126-0.202 0.328-0.355 0.572-0.416z"></path>
<path fill="#000" style="fill: var(--color5, #000)" d="M9.682 9.922l-0.077 0.096c-0.173 0.215-0.139 0.53 0.076 0.703 0.216 0.174 0.531 0.138 0.703-0.076l0.078-0.096c0.173-0.215 0.139-0.53-0.076-0.703s-0.53-0.139-0.703 0.076z"></path>
</symbol>
<symbol id="icon-icon_arrow-meditation" viewBox="0 0 136 32">
<path d="M134.748 17.414c0.78-0.781 0.78-2.047 0-2.829l-12.728-12.728c-0.781-0.781-2.047-0.781-2.828 0s-0.781 2.047 0 2.828l11.314 11.314-11.314 11.314c-0.781 0.781-0.781 2.047 0 2.828s2.047 0.781 2.828 0l12.728-12.728zM0 18h133.333v-4h-133.333v4z"></path>
</symbol>
<symbol id="icon-icon_logo-footer" viewBox="0 0 39 32">
<g clip-path="url(#clip0_34_4)">
<g filter="url(#filter0_d_34_4)">
<path d="M126.022 72.5161C128.172 57.1183 125.505 42.4086 122.581 32.086C122.409 31.5699 122.323 31.1398 122.151 30.6237C120.516 32.5161 118.71 34.1505 116.817 35.6989C116.129 36.2151 115.441 36.8172 114.753 37.3333C113.892 37.9355 113.118 38.5376 112.258 39.1398C108.387 41.8065 104.344 44.2151 100.559 46.9677C96.6882 38.1075 91.6129 29.7634 86.7957 21.3333C83.0108 14.7957 79.3979 8.17204 76.4731 1.29032C76.3011 0.860215 76.129 0.430108 75.957 0C72.9462 7.39785 69.0753 14.4516 65.0323 21.3333C60.2151 29.7634 55.1398 38.1075 51.2688 46.9677C47.4839 44.2151 43.4409 41.8065 39.5699 39.1398C38.7097 38.5376 37.8495 37.9355 37.0753 37.3333C34.4086 35.3548 31.828 33.1183 29.5914 30.6237C26.4946 40.9462 23.4839 56.3441 25.7204 72.4301C13.8495 71.2258 5.67742 68.9032 0 66.2366C2.23656 77.5914 8.86022 97.9785 27.4409 110.194C27.4409 110.194 27.5269 110.194 27.5269 110.28C28.9032 111.14 30.3656 112 31.828 112.86C32.4301 113.204 33.0323 113.462 33.6344 113.806C40 116.989 47.5699 119.226 56.5161 120.086C48.086 112.946 42.2366 105.118 38.2796 97.0323C35.5269 91.4409 33.7204 85.7634 32.6022 80.086C37.0753 80.6021 41.1183 81.5484 44.9032 82.9247C45.3333 85.5914 45.9355 88.2581 46.8817 90.9247C49.8925 99.6129 56 107.183 63.828 112.086C66.6667 113.892 69.7635 115.269 72.9462 116.301C73.5484 109.849 71.914 102.022 67.5269 94.7097C66.4086 92.9032 65.1183 91.0968 63.6559 89.3764C61.9355 82.1505 62.6237 74.3226 65.8065 67.5269C68.3011 62.2796 72.6022 55.2258 75.4409 50.2366C75.6129 49.9785 75.785 49.6344 75.957 49.3763C76.129 49.6344 76.3011 49.9785 76.3871 50.2366C79.3118 55.3118 83.6129 62.2796 86.0215 67.5269C89.2043 74.3226 89.8925 82.1505 88.1721 89.3764C80.8602 97.8925 78.1936 108.129 78.8817 116.129C78.8817 116.129 78.8817 116.129 78.8817 116.215C78.8817 116.301 78.8817 116.301 78.8817 116.301C82.0645 115.269 85.1613 113.892 88 112.086C89.2043 111.312 90.3226 110.538 91.4409 109.677C97.6344 104.86 102.366 98.3226 104.946 90.9247C105.892 88.3441 106.495 85.6774 106.925 82.9247C110.71 81.5484 114.753 80.6021 119.226 80.086C116.473 93.8495 109.591 107.957 95.3118 120C104.258 119.14 111.828 116.903 118.194 113.72C118.796 113.462 119.398 113.118 120 112.774C140.731 101.677 148.559 80.8602 151.398 68.3011C151.57 67.6129 151.742 66.9247 151.828 66.2366C145.979 68.9032 137.806 71.2258 126.022 72.5161ZM34.4086 98.3226C38.3656 105.204 43.871 111.742 51.2688 117.763C45.7634 116.559 40.8602 114.753 36.6452 112.43C20.5591 103.828 13.0753 88.8602 9.54839 77.5914C14.4516 78.7097 20.043 79.4839 26.3226 79.5699C26.4946 79.5699 26.7527 79.5699 26.9247 79.5699C28.4731 85.9355 30.7957 92.2151 34.4086 98.3226ZM48.172 54.4516C46.4516 59.4409 45.1613 64.6021 44.6452 69.8495C44.5591 71.0538 44.4731 72.1721 44.3871 73.3764C44.3871 74.3226 44.3011 75.2688 44.3011 76.3011C40.5161 74.9247 36.2151 73.8064 31.4839 73.2043C31.3118 71.3979 31.1398 69.5914 31.1398 67.871C30.7957 58.5806 32 49.8925 33.6344 42.6667C35.4409 43.7849 37.2473 44.9032 39.1398 45.8495C42.5807 47.6559 46.1075 49.3763 49.3764 51.3548C48.9462 52.3011 48.6022 53.3333 48.172 54.4516ZM67.0968 100.129C69.7634 104.43 71.1398 108.903 71.2258 113.204C71.2258 113.376 71.2258 113.548 71.2258 113.72C69.9355 113.032 68.6452 112.172 67.4409 111.312C60.043 105.978 54.5376 98.1505 51.957 89.4624C51.6129 88.2581 51.3548 87.0538 51.0968 85.8495C54.8817 87.828 58.1505 90.1505 60.9032 92.7312C63.3979 94.9677 65.4624 97.5484 67.0968 100.129ZM61.0753 69.7634C60.7312 70.9677 60.4731 72.2581 60.3011 73.4624C60.3011 73.6344 60.2151 73.7204 60.2151 73.8925C59.6129 78.0215 59.6129 82.2366 60.5591 86.1936C60.3011 86.0215 60.129 85.7634 59.871 85.5914C57.2043 83.0968 54.0215 80.8602 50.3226 78.9677C50.3226 78.1075 50.2366 77.2473 50.2366 76.3011C50.2366 75.2688 50.2366 74.1505 50.3226 73.1183C50.3226 72.9462 50.3226 72.6882 50.3226 72.5161C50.5807 68.3871 51.3548 64.2581 52.3871 60.2151C52.9032 58.3226 53.4194 56.4301 54.0215 54.6237C54.8817 55.3118 55.828 56.086 56.6022 56.8602C59.0108 59.1828 60.9893 61.8495 62.4516 64.7742C62.1075 66.4086 61.5914 68.043 61.0753 69.7634ZM81.5484 48.5161C79.6559 44.6452 77.8495 40.6882 76.4731 36.5591C76.2151 35.871 76.043 35.2688 75.871 34.5806C74.4086 39.3979 72.3441 43.957 70.1075 48.4301C68.043 52.6452 65.8925 56.8602 64.086 61.1613C62.3656 57.3763 59.6129 53.9355 56.5161 51.1828C56.2581 50.9247 56 50.6667 55.7419 50.4946C56.8602 47.4839 58.0645 44.5591 59.3548 41.6344C60.6452 38.6237 62.0215 35.6989 63.3979 32.6882C66.8387 25.3763 71.7419 16.6021 75.871 7.22581C78.7097 13.7634 81.9785 20.043 84.9032 25.7204C86.1075 28.2151 87.3118 30.5376 88.3441 32.7742C89.7204 35.6989 91.0968 38.7097 92.3871 41.7204C93.6774 44.6452 94.8817 47.5699 96 50.5806C95.7419 50.8387 95.4839 51.0968 95.2258 51.2688C92.129 54.1075 89.3764 57.4624 87.6559 61.2473C85.8495 56.9462 83.6129 52.7312 81.5484 48.5161ZM89.0323 64.6882C90.4946 61.7634 92.4731 59.0968 94.8817 56.7742C95.7419 56 96.6022 55.2258 97.4624 54.5376C98.0645 56.4301 98.6667 58.2366 99.0968 60.129C100.215 64.3441 100.989 68.6452 101.247 73.0323C101.333 75.0108 101.419 76.9032 101.333 78.8817C101.333 78.8817 101.333 78.8817 101.247 78.8817C97.5484 80.7742 94.4516 83.0108 91.6989 85.5054C91.4409 85.6774 91.2688 85.9355 91.0108 86.1075C92.3011 80.7742 91.871 75.0968 90.4946 69.7634C90.1505 68.043 89.6344 66.4086 89.0323 64.6882ZM80.4301 113.204C80.6022 103.398 87.914 92.3871 100.559 85.7634C100.301 86.9677 100.043 88.172 99.6989 89.3764C97.8065 96 94.1075 102.108 89.2903 106.925C87.7419 108.473 86.0215 109.935 84.3011 111.226C83.0968 112.086 81.8065 112.86 80.5161 113.634C80.4301 113.462 80.4301 113.29 80.4301 113.204ZM107.355 76.3011C107.441 68.9032 105.892 61.4194 103.484 54.4516C103.14 53.4194 102.71 52.3011 102.28 51.2688C105.634 49.2903 109.161 47.5699 112.516 45.7634C114.409 44.8172 116.215 43.6989 118.022 42.5806C118.28 43.6129 118.452 44.6452 118.71 45.6774C120 52.2151 120.86 59.785 120.516 67.785C120.43 69.5054 120.344 71.3118 120.172 73.1183C115.441 73.8064 111.14 74.9247 107.355 76.3011ZM115.011 112.516C110.796 114.753 105.892 116.645 100.387 117.849C114.409 106.495 121.548 93.0753 124.731 79.7419C124.903 79.7419 125.161 79.7419 125.333 79.7419C131.699 79.6559 137.29 78.8817 142.108 77.7634C138.667 88.9462 131.097 103.914 115.011 112.516Z" fill="url(#paint0_linear_34_4)"/>
</g>
</g>
<defs>
<filter id="filter0_d_34_4" x="-4" y="-2" width="159.828" height="128.086" filterUnits="userSpaceOnUse" color-interpolation-filters="sRGB">
<feFlood flood-opacity="0" result="BackgroundImageFix"/>
<feColorMatrix in="SourceAlpha" type="matrix" values="0 0 0 0 0 0 0 0 0 0 0 0 0 0 0 0 0 0 127 0" result="hardAlpha"/>
<feOffset dy="2"/>
<feGaussianBlur stdDeviation="2"/>
<feColorMatrix type="matrix" values="0 0 0 0 0 0 0 0 0 0 0 0 0 0 0 0 0 0 0.25 0"/>
<feBlend mode="normal" in2="BackgroundImageFix" result="effect1_dropShadow_34_4"/>
<feBlend mode="normal" in="SourceGraphic" in2="effect1_dropShadow_34_4" result="shape"/>
</filter>
<linearGradient id="paint0_linear_34_4" x1="75.914" y1="0" x2="75.914" y2="120.086" gradientUnits="userSpaceOnUse">
<stop stop-color="#7ADBAE"/>
<stop offset="1" stop-color="#1A7F72"/>
</linearGradient>
<clipPath id="clip0_34_4">
<rect width="152" height="124" fill="white"/>
</clipPath>
</defs>
</symbol>
<symbol id="icon-icon_meditation" viewBox="0 0 32 32">
<path fill="#e5e5e5" style="fill: var(--color12, #e5e5e5)" d="M0 0h32v32h-32v-32z"></path>
<path fill="#fff" style="fill: var(--color1, #fff)" d="M-99.2-436.8h614.4v2404.48h-614.4v-2404.48z"></path>
<path fill="#3bd1bb" style="fill: var(--color13, #3bd1bb)" opacity="0.09" d="M-99.2-436.8h614.4v2404.48h-614.4v-2404.48z"></path>
<path fill="#fff" style="fill: var(--color1, #fff)" d="M-44.8-16c-3.535 0-6.4 2.865-6.4 6.4v160c0 0.34 0.027 0.675 0.078 1.001 0.972-0.399 1.986-0.681 3.008-0.849 5.253-0.861 10.627 0.574 15.699 2.073 0.171 0.051 0.342 0.101 0.513 0.152 4.913 1.454 9.991 2.957 15.125 2.495 4.461-0.389 8.652-2.22 12.801-4.032 5.37-2.346 10.67-4.661 16.392-3.78 3.312 0.507 6.242 2.061 9.154 3.607 0.752 0.399 1.502 0.797 2.257 1.176 3.683 1.85 8.030 3.316 12.046 2.2 2.527-0.7 4.527-2.313 6.53-3.929 1.922-1.55 3.846-3.102 6.241-3.852 3.651-1.152 7.515-0.241 11.381 0.671 3.839 0.906 7.682 1.812 11.322 0.7 3.442-1.052 5.948-3.731 7.97-6.473 0.38-0.501 0.753-1.011 1.126-1.521 0.883-1.207 1.769-2.416 2.758-3.536v-146.104c0-3.535-2.865-6.4-6.4-6.4h-121.6z"></path>
<path fill="#ffe4cc" style="fill: var(--color7, #ffe4cc)" d="M28.5 27.762c-0.007 2.075-1.73 3.738-3.806 3.738h-17.444c-2.077 0-3.757-1.687-3.75-3.762s1.73-3.738 3.806-3.738h1.075c0.404 0.603 1.092 1 1.872 1h11.495c0.782 0 1.471-0.4 1.872-1h1.131c2.077 0 3.757 1.687 3.75 3.762z"></path>
<path fill="#7adbae" style="fill: var(--color4, #7adbae)" d="M24.694 31.5h-0.694v-3.75l-7 1.75-0.054-0.164c-0.266-0.798-1.013-1.336-1.854-1.336-0.741 0-1.101 0.339-2.092 1l-5-1.25v3.75h-0.75c-2.071 0-3.75-1.679-3.75-3.75 0-2.070 1.678-3.75 3.75-3.75h1.131c0.404 0.603 1.092 1 1.872 1h11.495c0.782 0 1.471-0.4 1.872-1 1.171 0 2.526-0.157 3.782 1.098 2.355 2.357 0.678 6.402-2.708 6.402z"></path>
<path fill="#7adbae" style="fill: var(--color4, #7adbae)" d="M23.619 24c-0.401 0.599-1.089 1-1.872 1h-11.495c-0.763 0-1.459-0.383-1.872-1-0.154 0.001-1.345 0.005-1.366 0.008-1.972 0.122-3.521 1.762-3.515 3.755 0.007 2.076 1.73 3.738 3.806 3.738h0.694v-1h-0.702c-2.449 0-3.74-2.949-1.993-4.694 0.942-0.943 2.154-0.806 1.944-0.806 0.079 0 0.154 0.037 0.201 0.1 0.41 0.546 1.063 0.9 1.799 0.9h12.25c1.151 0 2.107-0.866 2.235-1.992-0.195-0.013-0.354-0.008-0.116-0.008z"></path>
<path fill="#f9cfac" style="fill: var(--color6, #f9cfac)" d="M13.5 30.5c-0.801 0-1.141-1.020-0.5-1.5l-2.036 0.814c-0.452 0.181-0.484 0.686-0.464 0.686-1.057 0-1.986-0.701-2.276-1.717l-0.224-0.783v3.5h16v-1h-10.5z"></path>
<path fill="#f9cfac" style="fill: var(--color6, #f9cfac)" d="M24 22.748c0 1.237-1.005 2.253-2.253 2.253h-11.495c-1.437 0-2.512-1.333-2.199-2.741l0.644-2.902c0.764-3.435 3.812-5.857 7.302-5.857 3.517 0 6.543 2.446 7.302 5.857 0.693 3.119 0.698 3.057 0.698 3.391z"></path>
<path fill="#ffe4cc" style="fill: var(--color7, #ffe4cc)" d="M23.946 22.259l-0.644-2.902c-0.298-1.341-0.946-2.53-1.834-3.481-0.715-0.635-1.573-1.142-2.511-1.466-0.034 0.047-0.084 0.094-0.148 0.137-0.052-0.022-0.205-0.082-0.366-0.137-0.568 0.785-4.317 0.772-4.886 0.001-0.132 0.045-0.262 0.094-0.391 0.147-1.707 1.020-3.005 2.72-3.468 4.799-0.7 3.154-0.665 2.972-0.684 3.141 0.124 1.126 1.079 2.002 2.238 2.002 12.419 0 11.567 0.030 11.995-0.074 0.573-0.483 0.884-1.336 0.699-2.168z"></path>
<path fill="#f9cfac" style="fill: var(--color6, #f9cfac)" d="M17.223 25h-1.723c0-0.276 0.224-0.5 0.5-0.5 0.414 0 0.75-0.336 0.75-0.75 0-0.405-0.323-0.74-0.731-0.75-0.26-0.006-0.49-0.189-0.516-0.448-0.031-0.3 0.204-0.552 0.497-0.552 1.561 0 2.347 1.902 1.223 3z"></path>
<path fill="#7adbae" style="fill: var(--color4, #7adbae)" d="M19.611 18.5l0.889 4h-0.379c-1.318 0-2.633-0.512-3.621-1.5h-1c-0.952 0.952-2.253 1.5-3.621 1.5h-0.879l0.483-2.174c0.93-0.164 1.25-0.214 1.564-0.29 2.957-0.702 5.197-3.062 5.794-5.976 1.911 0.784 3.488 2.367 4.215 4.439h-3.446z"></path>
<path fill="#edac5f" style="fill: var(--color14, #edac5f)" d="M23.057 18.5h-0.196c-0.801-1.847-2.306-3.268-4.128-3.983 0.041-0.151 0.078-0.303 0.109-0.456 1.911 0.784 3.488 2.367 4.215 4.439z"></path>
<path fill="#f9cfac" style="fill: var(--color6, #f9cfac)" d="M21.5 22.5h-1c-0.791-3.564-0.592-2.668-0.889-4h0.889l1 4z"></path>
<path fill="#f9cfac" style="fill: var(--color6, #f9cfac)" d="M20.5 9.484c-0.245 0.487-0.451 0.732-1.031 1.516h-0.114c-0.431 1.446-1.769 2.5-3.355 2.5-1.588 0-2.926-1.058-3.355-2.5h-0.114l-0.582-0.787c-2.055-2.779-0.575-6.57 2.551-7.499v-0.679c0-1.352 1.607-2.046 2.561-1.095 0.52 0.521 0.439 1.056 0.439 1.774 2.861 0.851 4.343 4.096 3 6.771z"></path>
<path fill="#ffe4cc" style="fill: var(--color7, #ffe4cc)" d="M19.5 7.5v1.5c0 1.93-1.578 3.557-3.508 3.553-1.453-0.003-2.492-1.179-2.492-2.502 0-2.077 1.64-3.551 3.5-3.551h1.498c0.552 0 1.001 0.447 1.001 1z"></path>
<path fill="#797a7a" style="fill: var(--color11, #797a7a)" d="M16.035 0.5c-1.119-0.019-2.035 0.921-2.035 2.039v0.96h4v-1c0-1.091-0.879-1.981-1.965-2z"></path>
<path fill="#6d6d6d" style="fill: var(--color8, #6d6d6d)" d="M20.051 10.212l-0.582 0.787h-0.114c0.195-0.656 0.145-0.92 0.145-3.5 0-0.348-0.051-0.683-0.145-1h-0.296c-0.34 0-0.656-0.192-0.809-0.5-0.153-0.306-0.466-0.5-0.809-0.5h-2.882c-0.34 0-0.655 0.192-0.809 0.5-0.153 0.306-0.466 0.5-0.809 0.5h-0.296c-0.196 0.656-0.145 0.92-0.145 3.5 0 0.348 0.051 0.683 0.145 1h-0.114l-0.582-0.787c-2.055-2.779-0.575-6.57 2.551-7.499 0.942-0.281 2.036-0.288 3 0 3.126 0.929 4.606 4.72 2.551 7.499z"></path>
<path fill="#7adbae" style="fill: var(--color4, #7adbae)" d="M24.75 31.5h-0.75v-1h1.25c1.719 0 3.116-1.33 3.241-3.005 0.146 2.186-1.585 4.005-3.741 4.005z"></path>
<path fill="#7adbae" style="fill: var(--color4, #7adbae)" d="M20.562 22.5c-0.452 0-0.653 0.006-0.986-0.029-1.014-0.108-1.975-0.517-2.757-1.176-0.303-0.256-0.686-0.34-1.039-0.279-0.644 0.102-0.704 0.58-1.942 1.094-1.108 0.459-1.941 0.39-2.839 0.39l0.483-2.174 1.041-0.183-0.113 0.302c-0.084 0.227 0.077 0.471 0.319 0.483 0.381-0.064 0.753-0.171 1.108-0.318 1.226-0.509 1.303-0.993 1.942-1.094 0.351-0.061 0.732 0.020 1.039 0.279 0.915 0.77 2.059 1.206 3.368 1.206l0.375 1.5z"></path>
<path fill="#f9cfac" style="fill: var(--color6, #f9cfac)" d="M12.988 18.109l-0.451 2.032-1.054 0.186 0.529-2.435c0.060-0.269 0.327-0.439 0.596-0.379s0.44 0.327 0.38 0.597z"></path>
<path fill="#000" style="fill: var(--color5, #000)" d="M9.555 17.161c0.229 0.154 0.54 0.093 0.694-0.137 0.030-0.044 0.060-0.087 0.092-0.13 0.162-0.223 0.113-0.536-0.11-0.698s-0.536-0.113-0.698 0.11c-0.039 0.053-0.077 0.107-0.113 0.161-0.154 0.229-0.093 0.54 0.136 0.694z"></path>
<path fill="#000" style="fill: var(--color5, #000)" d="M31.5 31h-4.015c3.014-2.54 1.238-7.5-2.735-7.5h-0.354c0.246-0.871 0.068-1.219-0.606-4.252-0.62-2.787-2.708-5.097-5.561-5.929 0.681-0.459 1.213-1.121 1.509-1.899 0.104-0.066 0.077-0.048 0.715-0.912 2.219-3.002 0.697-6.99-2.453-8.159v-0.35c0-1.103-0.897-2-2-2s-2 0.897-2 2v0.35c-3.151 1.169-4.672 5.158-2.453 8.159 0.641 0.867 0.611 0.845 0.715 0.912 0.296 0.777 0.828 1.439 1.508 1.898-1.063 0.31-2.059 0.839-2.915 1.563-0.211 0.178-0.238 0.494-0.059 0.705s0.494 0.238 0.705 0.059c1.844-1.557 4.396-2.074 6.753-1.27-0.724 2.722-2.935 4.766-5.741 5.261l-0.378 0.067 0.354-1.595c0.060-0.27-0.11-0.537-0.38-0.597s-0.537 0.11-0.597 0.38c-0.111 0.501-0.766 3.447-0.913 4.108h-0.599c-0.276 0-0.5 0.224-0.5 0.5s0.224 0.5 0.5 0.5h1.879c1.502 0 2.913-0.585 3.975-1.646 0.098-0.098 0.146-0.225 0.146-0.353 0 0.128 0.049 0.256 0.146 0.353 1.062 1.062 2.473 1.646 3.975 1.646h1.879c0.276 0 0.5-0.224 0.5-0.5s-0.224-0.5-0.5-0.5h-0.599l-0.667-3h1.957c0.046 0.154 0.087 0.308 0.122 0.465 0.706 3.181 0.686 3.022 0.686 3.282 0 0.968-0.784 1.753-1.752 1.753h-4.167c0.108-0.227 0.169-0.482 0.169-0.75 0-1.695-2.25-2.262-2.25-1.25 0 0.276 0.224 0.5 0.5 0.5 0.414 0 0.75 0.336 0.75 0.75s-0.336 0.75-0.75 0.75h-5.747c-1.118 0-1.954-1.039-1.711-2.133 0.661-2.979 0.691-3.219 0.92-3.829 0.097-0.259-0.034-0.547-0.293-0.644s-0.547 0.034-0.644 0.293c-0.258 0.69-0.276 0.886-0.959 3.963-0.099 0.444-0.087 0.906 0.040 1.35h-0.355c-3.935 0-5.767 4.942-2.738 7.5h-4.012c-0.276 0-0.5 0.224-0.5 0.5s0.224 0.5 0.5 0.5h31c0.276 0 0.5-0.224 0.5-0.5s-0.224-0.5-0.5-0.5zM15 2c0-0.551 0.449-1 1-1s1 0.449 1 1c0 0.205 0.067-0.032-1.182 0.003-0.909 0.025-0.818 0.17-0.818-0.003zM11.941 5.488c1.618-3.322 6.497-3.329 8.118 0 0.614 1.262 0.584 2.668-0.059 3.871-0-2.011 0.112-3.36-0.645-3.36-0.261 0-0.523 0.047-0.658-0.224-0.239-0.479-0.721-0.776-1.256-0.776-3.109 0-3.168-0.068-3.622 0.21-0.584 0.362-0.452 0.79-0.878 0.79h-0.296c-0.761 0-0.645 1.359-0.645 3.36-0.643-1.204-0.673-2.609-0.059-3.872zM13 10c0-2.744-0.014-2.671 0.042-3.004 0.494-0.035 0.931-0.324 1.156-0.774 0.033-0.067 0.085-0.123 0.147-0.162 0.14-0.086-0.023-0.061 3.097-0.061 0.425 0 0.294 0.427 0.88 0.791 0.194 0.119 0.412 0.189 0.636 0.205 0.059 0.349 0.042 0.309 0.042 3.004 0 1.654-1.346 3-3 3s-3-1.346-3-3zM20.512 18l-0.024-0.108c-0.060-0.27-0.327-0.44-0.597-0.38s-0.44 0.327-0.38 0.597l0.865 3.892h-0.255c-1.234 0-2.395-0.481-3.268-1.354-0.316-0.316-0.853-0.088-0.854 0.353-0-0.441-0.538-0.669-0.854-0.353-0.873 0.873-2.033 1.354-3.268 1.354h-0.255l0.275-1.239 0.787-0.139c3.185-0.562 5.654-2.898 6.497-5.852 1.4 0.716 2.477 1.858 3.127 3.23h-1.797zM11.379 29.11l-0.502 0.201c-0.682 0.273-1.020 1.009-0.819 1.689h-1.557v-2.61l2.879 0.72zM11.394 31c-0.431 0-0.549-0.6-0.147-0.761 2.072-0.829 1.967-0.782 2.029-0.823 1.059-0.706 1.26-0.916 1.814-0.916 0.627 0 1.181 0.4 1.379 0.994l0.055 0.164c0.083 0.248 0.342 0.39 0.596 0.327l6.379-1.595v2.61h-12.105zM24.5 31v-2.86l0.621-0.155c0.268-0.067 0.431-0.338 0.364-0.606s-0.338-0.431-0.606-0.364l-7.568 1.892c-0.401-0.852-1.26-1.407-2.219-1.407-0.893 0-1.361 0.412-2.185 0.961l-5.785-1.446c-0.268-0.067-0.539 0.096-0.606 0.364s0.096 0.539 0.364 0.606l0.621 0.155v2.86h-0.25c-1.8 0-3.25-1.458-3.25-3.25s1.458-3.25 3.25-3.25h0.882c0.505 0.61 1.268 1 2.121 1h11.495c0.83 0 1.596-0.366 2.122-1 1.021 0 2.116-0.11 3.179 0.951 2.030 2.032 0.604 5.548-2.298 5.548h-0.25z"></path>
</symbol>
<symbol id="icon-logo_header" viewBox="0 0 40 32">
<path d="M32.14 18.413c0.53-3.796-0.127-7.421-0.848-9.966-0.043-0.127-0.064-0.233-0.106-0.36-0.403 0.466-0.848 0.869-1.315 1.251-0.169 0.127-0.339 0.276-0.509 0.403-0.212 0.148-0.403 0.297-0.615 0.445-0.954 0.657-1.951 1.251-2.884 1.93-0.954-2.184-2.205-4.241-3.393-6.319-0.933-1.612-1.824-3.244-2.544-4.941-0.042-0.106-0.085-0.212-0.127-0.318-0.742 1.824-1.696 3.562-2.693 5.259-1.187 2.078-2.438 4.135-3.393 6.319-0.933-0.679-1.93-1.272-2.884-1.93-0.212-0.148-0.424-0.297-0.615-0.445-0.657-0.488-1.293-1.039-1.845-1.654-0.763 2.544-1.505 6.34-0.954 10.305-2.926-0.297-4.941-0.869-6.34-1.527 0.551 2.799 2.184 7.824 6.764 10.835 0 0 0.021 0 0.021 0.021 0.339 0.212 0.7 0.424 1.060 0.636 0.148 0.085 0.297 0.148 0.445 0.233 1.569 0.784 3.435 1.336 5.64 1.548-2.078-1.76-3.52-3.69-4.495-5.683-0.679-1.378-1.124-2.778-1.399-4.177 1.103 0.127 2.099 0.36 3.032 0.7 0.106 0.657 0.254 1.315 0.488 1.972 0.742 2.142 2.248 4.008 4.177 5.216 0.7 0.445 1.463 0.784 2.248 1.039 0.148-1.59-0.254-3.52-1.336-5.322-0.276-0.445-0.594-0.891-0.954-1.315-0.424-1.781-0.254-3.711 0.53-5.386 0.615-1.293 1.675-3.032 2.375-4.262 0.042-0.064 0.085-0.148 0.127-0.212 0.042 0.064 0.085 0.148 0.106 0.212 0.721 1.251 1.781 2.969 2.375 4.262 0.785 1.675 0.954 3.605 0.53 5.386-1.802 2.099-2.46 4.622-2.29 6.595 0 0 0 0 0 0.021s0 0.021 0 0.021c0.785-0.254 1.548-0.594 2.248-1.039 0.297-0.191 0.573-0.382 0.848-0.594 1.527-1.188 2.693-2.799 3.329-4.623 0.233-0.636 0.382-1.293 0.488-1.972 0.933-0.339 1.93-0.573 3.032-0.7-0.678 3.393-2.375 6.87-5.895 9.839 2.205-0.212 4.071-0.763 5.64-1.548 0.148-0.064 0.297-0.148 0.445-0.233 5.11-2.735 7.040-7.867 7.739-10.962 0.042-0.17 0.085-0.339 0.106-0.509-1.442 0.657-3.456 1.23-6.361 1.548zM9.557 24.774c0.975 1.696 2.332 3.308 4.156 4.792-1.357-0.297-2.566-0.742-3.605-1.315-3.965-2.12-5.81-5.81-6.679-8.588 1.209 0.276 2.587 0.466 4.135 0.488 0.042 0 0.106 0 0.148 0 0.382 1.569 0.954 3.117 1.845 4.622zM12.95 13.96c-0.424 1.23-0.742 2.502-0.869 3.796-0.021 0.297-0.042 0.573-0.064 0.869 0 0.233-0.021 0.466-0.021 0.721-0.933-0.339-1.993-0.615-3.159-0.763-0.042-0.445-0.085-0.891-0.085-1.315-0.085-2.29 0.212-4.432 0.615-6.213 0.445 0.276 0.891 0.551 1.357 0.785 0.848 0.445 1.718 0.869 2.523 1.357-0.106 0.233-0.191 0.488-0.297 0.763zM17.615 25.22c0.657 1.060 0.997 2.163 1.018 3.223 0 0.042 0 0.085 0 0.127-0.318-0.17-0.636-0.382-0.933-0.594-1.824-1.315-3.181-3.244-3.817-5.386-0.085-0.297-0.148-0.594-0.212-0.891 0.933 0.488 1.739 1.060 2.417 1.696 0.615 0.551 1.124 1.187 1.527 1.824zM16.131 17.734c-0.085 0.297-0.148 0.615-0.191 0.912 0 0.042-0.021 0.064-0.021 0.106-0.148 1.018-0.148 2.057 0.085 3.032-0.064-0.042-0.106-0.106-0.17-0.148-0.657-0.615-1.442-1.166-2.354-1.633 0-0.212-0.021-0.424-0.021-0.657 0-0.254 0-0.53 0.021-0.785 0-0.042 0-0.106 0-0.148 0.064-1.018 0.254-2.036 0.509-3.032 0.127-0.466 0.254-0.933 0.403-1.378 0.212 0.17 0.445 0.36 0.636 0.551 0.594 0.572 1.081 1.23 1.442 1.951-0.085 0.403-0.212 0.806-0.339 1.23zM21.177 12.497c-0.466-0.954-0.912-1.93-1.251-2.947-0.064-0.17-0.106-0.318-0.148-0.488-0.36 1.187-0.869 2.311-1.421 3.414-0.509 1.039-1.039 2.078-1.484 3.138-0.424-0.933-1.103-1.781-1.866-2.46-0.064-0.064-0.127-0.127-0.191-0.17 0.276-0.742 0.572-1.463 0.891-2.184 0.318-0.742 0.657-1.463 0.997-2.205 0.848-1.802 2.057-3.965 3.075-6.276 0.7 1.612 1.505 3.159 2.226 4.559 0.297 0.615 0.594 1.187 0.848 1.739 0.339 0.721 0.679 1.463 0.997 2.205 0.318 0.721 0.615 1.442 0.891 2.184-0.064 0.064-0.127 0.127-0.191 0.17-0.763 0.7-1.442 1.527-1.866 2.46-0.445-1.060-0.997-2.099-1.506-3.138zM23.022 16.483c0.36-0.721 0.848-1.378 1.442-1.951 0.212-0.191 0.424-0.382 0.636-0.551 0.148 0.466 0.297 0.912 0.403 1.378 0.276 1.039 0.466 2.099 0.53 3.181 0.021 0.488 0.042 0.954 0.021 1.442 0 0 0 0-0.021 0-0.912 0.466-1.675 1.018-2.354 1.633-0.064 0.042-0.106 0.106-0.17 0.148 0.318-1.315 0.212-2.714-0.127-4.029-0.085-0.424-0.212-0.827-0.36-1.251zM20.902 28.443c0.042-2.417 1.845-5.131 4.962-6.764-0.064 0.297-0.127 0.594-0.212 0.891-0.466 1.633-1.378 3.138-2.566 4.326-0.382 0.382-0.806 0.742-1.23 1.060-0.297 0.212-0.615 0.403-0.933 0.594-0.021-0.043-0.021-0.085-0.021-0.106zM27.539 19.346c0.021-1.824-0.361-3.668-0.954-5.386-0.085-0.254-0.191-0.53-0.297-0.785 0.827-0.488 1.696-0.912 2.523-1.357 0.467-0.233 0.912-0.509 1.357-0.785 0.064 0.254 0.106 0.509 0.17 0.763 0.318 1.611 0.53 3.477 0.445 5.449-0.021 0.424-0.043 0.869-0.085 1.315-1.166 0.17-2.227 0.445-3.159 0.785zM29.426 28.273c-1.039 0.551-2.248 1.018-3.605 1.315 3.456-2.799 5.216-6.107 6.001-9.394 0.043 0 0.106 0 0.148 0 1.569-0.021 2.947-0.212 4.135-0.488-0.848 2.757-2.714 6.446-6.679 8.567z"></path>
</symbol>
</defs>
</svg>
