<svg width="1920" height="1300" viewBox="0 0 1920 1300" fill="none" xmlns="http://www.w3.org/2000/svg">
<path fill-rule="evenodd" clip-rule="evenodd" d="M-368.487 668.094L-403 16.4991C-396.899 19.1892 -391.11 22.0306 -385.321 24.8721C-360.235 37.1848 -335.149 49.4976 -284.677 49.4976C-233.927 49.4976 -208.598 37.0779 -183.316 24.6808C-158.127 12.3291 -132.983 0 -82.7878 0C-32.0379 0 -6.70941 12.4197 18.5727 24.8168C43.7623 37.1685 68.9059 49.4976 119.101 49.4976C169.851 49.4976 195.18 37.0778 220.462 24.6808C245.651 12.3291 270.795 0 320.99 0C371.647 0 396.976 12.3744 422.304 24.7488C447.633 37.1232 472.962 49.4976 523.619 49.4976C573.814 49.4976 598.958 37.1685 624.147 24.8168C649.429 12.4198 674.758 0 725.508 0C775.703 0 800.847 12.3291 826.036 24.6808C851.318 37.0778 876.647 49.4976 927.397 49.4976C977.592 49.4976 1002.74 37.1685 1027.93 24.8168C1053.21 12.4197 1078.54 0 1129.29 0C1179.48 0 1204.62 12.3291 1229.81 24.6808C1255.1 37.0779 1280.42 49.4976 1331.17 49.4976C1381.37 49.4976 1406.51 37.1685 1431.7 24.8168C1456.99 12.4197 1482.31 0 1533.06 0C1583.26 0 1608.4 12.3291 1633.59 24.6808C1658.87 37.0779 1684.2 49.4976 1734.95 49.4976C1785.15 49.4976 1810.29 37.1685 1835.48 24.8168C1860.76 12.4197 1886.09 0 1936.84 0C1987.04 0 2012.18 12.3291 2037.37 24.6808C2062.65 37.0779 2087.98 49.4976 2138.73 49.4976C2141.79 49.4976 2144.65 49.306 2147.41 49.121C2150 48.9478 2152.5 48.7802 2155 48.7802L2080.61 546.519L2155 1251.22C2152.5 1251.22 2150 1251.05 2147.41 1250.88C2144.65 1250.69 2141.79 1250.5 2138.73 1250.5C2087.98 1250.5 2062.65 1262.92 2037.37 1275.32C2012.18 1287.67 1987.04 1300 1936.84 1300C1886.09 1300 1860.76 1287.58 1835.48 1275.18C1810.29 1262.83 1785.15 1250.5 1734.95 1250.5C1684.2 1250.5 1658.87 1262.92 1633.59 1275.32C1608.4 1287.67 1583.26 1300 1533.06 1300C1482.31 1300 1456.99 1287.58 1431.7 1275.18C1406.51 1262.83 1381.37 1250.5 1331.17 1250.5C1280.42 1250.5 1255.1 1262.92 1229.81 1275.32C1204.62 1287.67 1179.48 1300 1129.29 1300C1078.54 1300 1053.21 1287.58 1027.93 1275.18C1002.74 1262.83 977.592 1250.5 927.397 1250.5C876.647 1250.5 851.318 1262.92 826.036 1275.32C800.847 1287.67 775.703 1300 725.508 1300C674.758 1300 649.429 1287.58 624.147 1275.18C598.958 1262.83 573.814 1250.5 523.619 1250.5C472.962 1250.5 447.633 1262.88 422.304 1275.25C396.976 1287.63 371.647 1300 320.99 1300C270.795 1300 245.651 1287.67 220.462 1275.32C195.18 1262.92 169.851 1250.5 119.101 1250.5C68.9059 1250.5 43.7623 1262.83 18.5727 1275.18C-6.70941 1287.58 -32.0379 1300 -82.7878 1300C-132.983 1300 -158.127 1287.67 -183.316 1275.32C-208.598 1262.92 -233.927 1250.5 -284.677 1250.5C-335.149 1250.5 -360.235 1262.82 -385.321 1275.13C-391.11 1277.97 -396.899 1280.81 -403 1283.5L-368.487 668.094Z" fill="url(#paint0_linear_23_9675)"/>
<defs>
<linearGradient id="paint0_linear_23_9675" x1="876" y1="1300" x2="876" y2="0" gradientUnits="userSpaceOnUse">
<stop stop-color="#1A7F72"/>
<stop offset="1" stop-color="#7ADBAE"/>
</linearGradient>
</defs>
</svg>
